<svg height="464pt" viewBox="0 0 464 464" width="464pt" xmlns="http://www.w3.org/2000/svg"><path d="m232 104v120h232v-120zm0 0" fill="#fd412d"/><path d="m232 104h48v120h-48zm0 0" fill="#d6332b"/><path d="m232 224v224c0 8.835938 7.164062 16 16 16h200c8.835938 0 16-7.164062 16-16v-224zm0 0" fill="#40bf7c"/><path d="m408 408c-70.691406 0-128-57.308594-128-128v-56h-48v224c0 8.835938 7.164062 16 16 16h200c8.835938 0 16-7.164062 16-16v-40zm0 0" fill="#2b8955"/><path d="m464 104h-232l32-56h168zm0 0" fill="#70dda8"/><path d="m264 48-32 56h48l32-56zm0 0" fill="#40bf7c"/><path d="m272 0h152c4.417969 0 8 3.582031 8 8v40h-168v-40c0-4.417969 3.582031-8 8-8zm0 0" fill="#faa108"/><path d="m424 0h-133.921875c10.464844 15.027344 27.613281 23.988281 45.921875 24h96v-16c0-4.417969-3.582031-8-8-8zm0 0" fill="#f9c170"/><path d="m384 136h80v48h-80zm0 0" fill="#faa108"/><path d="m232 136h48v48h-48zm0 0" fill="#faa108"/><path d="m432 272h-232v160c0 17.671875 14.328125 32 32 32h128c17.671875 0 32-14.328125 32-32v-16h40c17.671875 0 32-14.328125 32-32v-80c0-17.671875-14.328125-32-32-32zm0 112h-40v-80h40zm0 0" fill="#70dda8"/><path d="m200 336v96c0 17.671875 14.328125 32 32 32h128c17.671875 0 32-14.328125 32-32v-96zm0 0" fill="#fc756b"/><path d="m368 424c-70.691406 0-128-57.308594-128-128v-24h-40v160c0 17.671875 14.328125 32 32 32h128c17.671875 0 32-14.328125 32-32v-8zm0 0" fill="#40bf7c"/><path d="m246.398438 336h-46.398438v96c0 17.671875 14.328125 32 32 32h128c17.671875 0 32-14.328125 32-32v-8h-24c-55.285156.003906-104.324219-35.484375-121.601562-88zm0 0" fill="#fd412d"/><path d="m416 416h-24v-32zm0 0" fill="#40bf7c"/><path d="m392 304v-32l24 32" fill="#40bf7c"/><path d="m232 152h-208c-13.253906 0-24 10.746094-24 24s10.746094 24 24 24h208zm0 0" fill="#faa108"/><path d="m88 176h144v-24h-189.921875c10.464844 15.027344 27.613281 23.988281 45.921875 24zm0 0" fill="#f9c170"/><path d="m200 200h-176v132.640625c27.152344-25.460937 68.753906-27.507813 98.273438-4.835937 29.523437 22.671874 38.277343 63.390624 20.6875 96.195312h57.039062v-152h32v-72zm0 0" fill="#faa108"/><g fill="#d6850d"><path d="m200 272-24 32v120h24zm0 0"/><path d="m75.679688 238.878906c1.515624-1.5 2.367187-3.546875 2.367187-5.679687 0-2.132813-.851563-4.175781-2.367187-5.679688-3.121094-3.101562-8.160157-3.101562-11.28125 0l-40.398438 40.402344v19.359375c2.125.011719 4.171875-.824219 5.679688-2.320312zm0 0"/><path d="m109.679688 261.519531c-1.5-1.515625-3.546876-2.367187-5.679688-2.367187s-4.179688.851562-5.679688 2.367187l-61.28125 61.28125c10.0625-6.167969 21.4375-9.871093 33.199219-10.800781l39.441407-39.441406c2.945312-3.089844 2.945312-7.949219 0-11.039063zm0 0"/><path d="m205.679688 249.121094c-1.5-1.515625-3.546876-2.367188-5.679688-2.367188s-4.179688.851563-5.679688 2.367188l-48 48c-1.515624 1.5-2.367187 3.546875-2.367187 5.679687 0 2.132813.851563 4.175781 2.367187 5.679688 1.5 1.515625 3.546876 2.367187 5.679688 2.367187s4.179688-.851562 5.679688-2.367187l48-48c1.515624-1.503907 2.367187-3.546875 2.367187-5.679688 0-2.132812-.851563-4.179687-2.367187-5.679687zm0 0"/><path d="m168.960938 320c-2.308594 2.289062-3.003907 5.746094-1.757813 8.746094 1.25 3.003906 4.1875 4.953125 7.4375 4.933594 2.136719-.007813 4.183594-.871094 5.679687-2.398438l19.679688-19.921875v-19.28125c-2.125-.011719-4.171875.824219-5.679688 2.320313zm0 0"/><path d="m24 200v16h160c13.253906 0 24 10.746094 24 24v32h24v-72zm0 0"/><path d="m48 200h-24v132.640625c6.976562-6.546875 15.117188-11.726563 24-15.28125zm0 0"/><path d="m152 392c-.625 11.191406-3.679688 22.113281-8.960938 32h56.960938v-32zm0 0"/></g><path d="m152 388c0 41.972656-34.027344 76-76 76s-76-34.027344-76-76 34.027344-76 76-76 76 34.027344 76 76zm0 0" fill="#fd412d"/><path d="m134.800781 373.761719c-3.003906-8.308594-8.808593-13.824219-12.960937-12.320313-4.152344 1.5-5.085938 9.453125-2.078125 17.757813 3.003906 8.308593 8.804687 13.824219 12.957031 12.320312 4.15625-1.5 5.085938-9.453125 2.082031-17.757812zm0 0" fill="#fc756b"/><path d="m100 432c-41.972656 0-76-34.027344-76-76 .019531-9.578125 1.808594-19.070312 5.28125-28-25.183594 19.714844-35.332031 53.085938-25.382812 83.484375 9.949218 30.394531 37.859374 51.308594 69.828124 52.320313 31.964844 1.011718 61.144532-18.097657 72.992188-47.804688-13.355469 10.386719-29.796875 16.015625-46.71875 16zm0 0" fill="#d6332b"/><path d="m78.640625 368c-10.617187.019531-20.804687-4.183594-28.320313-11.679688-3.136718-3.136718-3.136718-8.222656 0-11.359374 3.136719-3.136719 8.222657-3.136719 11.359376 0 9.371093 9.359374 24.550781 9.359374 33.921874 0 3.117188-3.101563 8.15625-3.101563 11.277344 0 1.515625 1.5 2.367188 3.546874 2.367188 5.679687s-.851563 4.175781-2.367188 5.679687c-7.496094 7.476563-17.652344 11.675782-28.238281 11.679688zm0 0" fill="#d6332b"/><path d="m81.601562 363.679688c-3.765624.109374-7.097656-2.421876-8-6.078126-4.09375-16.554687-1.414062-34.058593 7.445313-48.625 8.863281-14.570312 23.171875-25 39.753906-28.976562 4.417969-1.058594 8.859375 1.660156 9.917969 6.078125 1.0625 4.421875-1.660156 8.863281-6.078125 9.921875-25.761719 6.273438-41.558594 32.242188-35.28125 58 .601563 2.429688.03125 5-1.539063 6.945312-1.570312 1.949219-3.960937 3.046876-6.460937 2.976563zm0 0" fill="#40bf7c"/></svg>