<svg height="453pt" viewBox="0 0 453.74448 453" width="453pt" xmlns="http://www.w3.org/2000/svg"><path d="m283.105469 152.039062-49.34375-71h-172.355469l-49.34375 71c-5.914062 8.496094-9.058594 18.585938-9.058594 28.9375v216.574219c0 28.03125 22.703125 50.738281 50.714844 50.738281h187.730469c28.011719 0 50.71875-22.707031 50.71875-50.738281v-216.574219c-.003907-10.351562-3.148438-20.441406-9.0625-28.9375zm0 0" fill="#8ac6dd"/><path d="m285.566406 150.324219-49.34375-71c-.558594-.804688-1.480468-1.285157-2.460937-1.285157h-172.355469c-.980469 0-1.898438.480469-2.460938 1.285157l-49.34375 71c-6.28125 9.023437-9.601562 19.621093-9.601562 30.652343v96.558594c0 1.65625 1.34375 3 3 3s3-1.34375 3-3v-96.558594c0-9.796874 2.949219-19.210937 8.527344-27.226562l48.449218-69.710938h169.214844l48.449219 69.710938c5.578125 8.015625 8.527344 17.429688 8.527344 27.226562v216.574219c0 26.320313-21.40625 47.738281-47.714844 47.738281h-187.734375c-26.3125 0-47.714844-21.417968-47.714844-47.738281v-90.511719c0-1.660156-1.347656-3-3-3-1.65625 0-2.99999975 1.339844-2.99999975 3v90.511719c0 29.628907 24.09765575 53.738281 53.71484375 53.738281h187.730469c29.621093 0 53.714843-24.105468 53.714843-53.738281v-216.574219c0-11.03125-3.316406-21.628906-9.597656-30.652343zm0 0" fill="#3a312a"/><path d="m239.359375 4.285156h-183.550781c-9.957032 0-18.03125 8.074219-18.03125 18.03125v40.675782c0 9.960937 8.074218 18.035156 18.03125 18.035156h183.550781c9.957031 0 18.03125-8.074219 18.03125-18.035156v-40.671876c0-9.960937-8.074219-18.035156-18.03125-18.035156zm0 0" fill="#87796f"/><path d="m239.359375 1.285156h-116.457031c-1.65625 0-3 1.34375-3 3 0 1.660156 1.34375 3 3 3h116.457031c8.289063 0 15.035156 6.746094 15.035156 15.03125v40.675782c0 8.292968-6.746093 15.035156-15.035156 15.035156h-183.550781c-8.289063 0-15.03125-6.746094-15.03125-15.035156v-40.671876c0-8.289062 6.742187-15.03125 15.03125-15.03125h38.460937c1.65625 0 3-1.34375 3-3 0-1.660156-1.34375-3-3-3h-38.460937c-11.597656 0-21.03125 9.433594-21.03125 21.03125v40.675782c0 11.597656 9.433594 21.03125 21.03125 21.03125h183.550781c11.597656 0 21.03125-9.433594 21.03125-21.03125v-40.675782c0-11.597656-9.433594-21.035156-21.03125-21.035156zm0 0" fill="#3a312a"/><path d="m280.644531 153.746094-48.460937-69.699219h-30l48.460937 69.699219c5.578125 8.019531 8.519531 17.441406 8.519531 27.238281v216.5625c0 26.320313-21.398437 47.738281-47.71875 47.738281h30c26.320313 0 47.71875-21.417968 47.71875-47.738281v-216.5625c0-9.796875-2.941406-19.21875-8.519531-27.238281zm0 0" fill="#6ca8bf"/><path d="m239.363281 7.285156h-30c8.28125 0 15.019531 6.742188 15.019531 15.039063v40.660156c0 8.300781-6.738281 15.042969-15.019531 15.042969h30c8.28125 0 15.019531-6.742188 15.019531-15.042969v-40.660156c0-8.296875-6.738281-15.039063-15.019531-15.039063zm0 0" fill="#695b51"/><path d="m232.960938 193.285156h-170.753907c-10.839843 0-19.625 8.785156-19.625 19.625v170.753906c0 10.835938 8.785157 19.621094 19.625 19.621094h170.753907c10.835937 0 19.625-8.785156 19.625-19.621094v-170.753906c0-10.839844-8.789063-19.625-19.625-19.625zm0 0" fill="#fce8cb"/><path d="m232.960938 190.285156h-170.753907c-12.476562 0-22.625 10.148438-22.625 22.625v170.753906c0 12.472657 10.148438 22.625 22.625 22.625h170.753907c12.472656 0 22.625-10.148437 22.625-22.625v-170.753906c-.003907-12.472656-10.152344-22.625-22.625-22.625zm16.621093 193.378906c0 9.164063-7.457031 16.625-16.625 16.625h-170.75c-9.167969 0-16.625-7.460937-16.625-16.625v-170.753906c0-9.167968 7.457031-16.625 16.625-16.625h170.753907c9.164062 0 16.625 7.457032 16.625 16.625v170.753906zm0 0" fill="#3a312a"/><path d="m167.507812 278.46875v-38.183594h-39.847656v38.183594h-38.183594v39.84375h38.183594v38.183594h39.847656v-38.183594h38.183594v-39.84375zm0 0" fill="#f16c7a"/><path d="m205.6875 275.46875h-35.183594v-35.183594c0-1.65625-1.34375-3-3-3h-39.839844c-1.65625 0-3 1.34375-3 3v35.183594h-35.1875c-1.65625 0-3 1.34375-3 3v39.84375c0 1.660156 1.34375 3 3 3h35.1875v35.183594c0 1.65625 1.34375 3 3 3h39.84375c1.652344 0 3-1.34375 3-3v-35.183594h35.183594c1.65625 0 3-1.339844 3-3v-39.84375c-.003906-1.65625-1.347656-3-3.003906-3zm-3 39.84375h-35.183594c-1.65625 0-3 1.34375-3 3v35.183594h-33.839844v-35.183594c0-1.65625-1.34375-3-3-3h-35.1875v-33.84375h35.1875c1.65625 0 3-1.339844 3-3v-35.183594h33.84375v35.183594c0 1.660156 1.34375 3 3 3h35.183594v33.84375zm0 0" fill="#3a312a"/><path d="m327.203125 187.136719c-10.753906 0-19.472656 8.71875-19.472656 19.476562v77.46875c0 10.753907 8.71875 19.472657 19.472656 19.472657 10.757813 0 19.476563-8.71875 19.476563-19.472657v-77.46875c0-10.757812-8.71875-19.476562-19.476563-19.476562zm0 0" fill="#f16c7a"/><path d="m327.203125 184.136719c-12.390625 0-22.472656 10.082031-22.472656 22.476562v77.464844c0 12.394531 10.082031 22.476563 22.472656 22.476563 12.394531 0 22.476563-10.082032 22.476563-22.476563v-77.464844c0-12.394531-10.082032-22.476562-22.476563-22.476562zm16.476563 99.941406c0 9.085937-7.390626 16.476563-16.476563 16.476563-9.082031 0-16.472656-7.390626-16.472656-16.476563v-77.464844c0-9.085937 7.390625-16.476562 16.472656-16.476562 9.085937 0 16.476563 7.390625 16.476563 16.476562zm0 0" fill="#3a312a"/><path d="m346.632812 245.347656h-38.855468c-.027344 0-.046875.019532-.046875.042969v38.179687c0 10.582032 8.230469 19.621094 18.808593 19.972657 11.058594.371093 20.140626-8.484375 20.140626-19.460938v-38.6875c0-.027343-.023438-.046875-.046876-.046875zm0 0" fill="#d7e057"/><path d="m346.632812 242.347656h-38.855468c-1.65625 0-3.046875 1.386719-3.046875 3.042969v38.179687c0 12.265626 9.738281 22.570313 21.710937 22.972657.257813.007812.515625.011719.773438.011719 5.867187 0 11.386718-2.226563 15.613281-6.316407 4.417969-4.273437 6.855469-10.011719 6.855469-16.15625v-38.6875c-.003906-1.660156-1.394532-3.046875-3.050782-3.046875zm-2.953124 41.730469c0 4.503906-1.785157 8.710937-5.023438 11.84375s-7.480469 4.777344-12.019531 4.621094c-8.769531-.292969-15.90625-7.90625-15.90625-16.976563v-35.222656h32.949219zm0 0" fill="#3a312a"/><path d="m427.472656 291.058594c-6.660156-8.445313-18.902344-9.898438-27.351562-3.238282l-60.839844 47.957032c-8.445312 6.660156-9.894531 18.902344-3.238281 27.347656 6.660156 8.445312 18.902343 9.898438 27.351562 3.238281l60.839844-47.957031c8.445313-6.65625 9.894531-18.902344 3.238281-27.347656zm0 0" fill="#f16c7a"/><path d="m429.828125 289.199219c-3.714844-4.714844-9.042969-7.699219-15.007813-8.40625-5.949218-.703125-11.839843.953125-16.554687 4.667969l-60.839844 47.957031c-9.734375 7.675781-11.410156 21.832031-3.738281 31.5625 3.714844 4.714843 9.042969 7.703125 15.007812 8.40625.898438.105469 1.792969.160156 2.6875.160156 5.019532 0 9.863282-1.671875 13.871094-4.828125l60.839844-47.957031c9.726562-7.671875 11.402344-21.828125 3.734375-31.5625zm-7.453125 26.851562-60.839844 47.960938c-3.457031 2.722656-7.777344 3.9375-12.136718 3.417969-4.371094-.515626-8.277344-2.707032-11-6.160157-5.625-7.132812-4.394532-17.515625 2.738281-23.136719l60.84375-47.960937c3.453125-2.722656 7.757812-3.941406 12.132812-3.421875 4.371094.519531 8.277344 2.707031 11.003907 6.164062 5.621093 7.132813 4.390624 17.515626-2.742188 23.136719zm0 0" fill="#3a312a"/><path d="m369.730469 311.832031c-.015625-.019531-.046875-.023437-.066407-.007812l-29.984374 23.636719c-8.3125 6.550781-10.3125 18.605468-4.042969 27.132812 6.558593 8.914062 19.132812 10.5625 27.753906 3.769531l30.386719-23.953125c.019531-.015625.023437-.042968.007812-.0625zm0 0" fill="#d7e057"/><path d="m396.140625 340.492188-24.179687-30.667969c-1.058594-1.171875-2.910157-1.335938-4.15625-.351563l-29.980469 23.632813c-9.632813 7.59375-11.699219 21.621093-4.601563 31.265625 3.648438 4.957031 9.011719 8.144531 15.101563 8.96875 1.027343.140625 2.050781.207031 3.070312.207031 5.015625 0 9.84375-1.664063 13.855469-4.828125l30.402344-23.964844c1.285156-1.027344 1.507812-2.964844.488281-4.261718zm-34.605469 23.519531c-3.539062 2.785156-7.9375 3.988281-12.410156 3.382812-4.460938-.601562-8.394531-2.9375-11.070312-6.578125-5.199219-7.070312-3.632813-17.386718 3.484374-23l27.664063-21.808594 20.394531 25.875zm0 0" fill="#3a312a"/><path d="m448.554688 398.953125c-3.4375-10.1875-14.488282-15.660156-24.679688-12.222656l-73.398438 24.773437c-10.191406 3.441406-15.664062 14.488282-12.222656 24.683594 3.4375 10.1875 14.484375 15.664062 24.679688 12.222656l73.398437-24.777344c10.191407-3.441406 15.664063-14.488281 12.222657-24.679687zm0 0" fill="#f16c7a"/><path d="m451.398438 397.992188c-1.921876-5.6875-5.941407-10.285157-11.320313-12.949219-5.378906-2.664063-11.472656-3.074219-17.160156-1.15625l-73.398438 24.773437c-11.742187 3.964844-18.070312 16.742188-14.109375 28.484375 1.921875 5.6875 5.941406 10.289063 11.320313 12.953125 3.148437 1.558594 6.542969 2.34375 9.953125 2.34375 2.421875 0 4.851562-.394531 7.207031-1.191406l73.402344-24.777344c11.742187-3.960937 18.066406-16.738281 14.105469-28.480468zm-16.023438 22.796874-73.402344 24.777344c-4.171875 1.40625-8.632812 1.105469-12.582031-.847656-3.941406-1.953125-6.886719-5.324219-8.292969-9.492188-2.90625-8.605468 1.730469-17.972656 10.339844-20.878906l73.398438-24.773437c4.171874-1.410157 8.636718-1.109375 12.582031.84375 3.945312 1.953125 6.886719 5.324219 8.296875 9.496093 2.902344 8.605469-1.734375 17.972657-10.339844 20.875zm0 0" fill="#3a312a"/><path d="m387.191406 399.160156c-.007812-.023437-.035156-.035156-.058594-.027344l-36.171874 12.210938c-10.027344 3.382812-15.957032 14.070312-12.910157 24.207031 3.1875 10.59375 14.480469 16.367188 24.882813 12.855469l36.65625-12.371094c.023437-.007812.035156-.035156.027344-.058594zm0 0" fill="#d7e057"/><path d="m402.460938 435.015625-12.414063-36.769531c-.246094-.769532-.816406-1.433594-1.539063-1.792969-.71875-.359375-1.582031-.417969-2.347656-.160156l-36.160156 12.207031c-11.625 3.921875-18.273438 16.445312-14.824219 27.914062 1.773438 5.894532 5.757813 10.695313 11.214844 13.511719 3.242187 1.675781 6.75 2.519531 10.285156 2.519531 2.417969 0 4.851563-.394531 7.214844-1.195312l36.644531-12.367188c.757813-.253906 1.398438-.824218 1.753906-1.539062.355469-.714844.425782-1.570312.171876-2.328125zm-40.488282 10.550781c-4.265625 1.441406-8.820312 1.09375-12.828125-.972656-4-2.066406-6.921875-5.585938-8.21875-9.910156-2.53125-8.402344 2.402344-17.601563 10.996094-20.5l33.371094-11.265625 10.542969 31.21875zm0 0" fill="#3a312a"/><path d="m406.585938 144.285156c0 16.015625-12.984376 29-29 29-16.019532 0-29-12.984375-29-29s12.980468-29 29-29c16.015624 0 29 12.984375 29 29zm0 0" fill="#f16c7a"/><path d="m377.582031 112.285156c-17.644531 0-32 14.355469-32 32 0 17.644532 14.355469 32 32 32s32-14.355468 32-32c0-17.644531-14.355469-32-32-32zm0 58c-14.335937 0-26-11.660156-26-26 0-14.335937 11.664063-26 26-26 14.335938 0 26 11.664063 26 26 0 14.339844-11.664062 26-26 26zm0 0" fill="#3a312a"/><path d="m377.582031 113.285156c-1.65625 0-3 1.34375-3 3v56c0 1.660156 1.34375 3 3 3s3-1.339844 3-3v-56c0-1.65625-1.34375-3-3-3zm0 0" fill="#3a312a"/><path d="m448.585938 222.285156c0 16.015625-12.984376 29-29 29-16.019532 0-29-12.984375-29-29s12.980468-29 29-29c16.015624 0 29 12.984375 29 29zm0 0" fill="#f16c7a"/><path d="m442.210938 199.660156c-12.476563-12.476562-32.78125-12.476562-45.253907 0-12.476562 12.476563-12.476562 32.777344 0 45.253906 6.238281 6.238282 14.433594 9.359376 22.625 9.359376 8.195313 0 16.390625-3.121094 22.628907-9.359376 12.476562-12.476562 12.476562-32.777343 0-45.253906zm-4.242188 41.011719c-10.136719 10.132813-26.628906 10.136719-36.769531 0-10.136719-10.136719-10.136719-26.632813 0-36.769531 5.070312-5.070313 11.726562-7.601563 18.386719-7.601563 6.652343 0 13.3125 2.535157 18.382812 7.601563 10.136719 10.136718 10.136719 26.632812 0 36.769531zm0 0" fill="#3a312a"/><path d="m441.503906 200.367188c-1.171875-1.171876-3.070312-1.171876-4.242187 0l-39.601563 39.597656c-1.171875 1.167968-1.171875 3.070312 0 4.242187.585938.585938 1.355469.875 2.125.875.765625 0 1.535156-.289062 2.121094-.875l39.601562-39.597656c1.167969-1.171875 1.167969-3.070313-.003906-4.242187zm0 0" fill="#3a312a"/><path d="m424.300781 22.726562c-1.949219 23.128907-26.050781 26.777344-26.050781 26.777344 20.695312.976563 25.851562 28.121094 25.851562 28.121094.441407-19.355469 26.640626-28.40625 26.640626-28.40625-19.625-1.175781-26.441407-26.492188-26.441407-26.492188zm0 0" fill="#d7e057"/><path d="m450.921875 46.222656c-17.207031-1.027344-23.664063-24.050781-23.726563-24.28125-.378906-1.402344-1.683593-2.332031-3.167968-2.203125-1.449219.132813-2.59375 1.285157-2.71875 2.734375-1.71875 20.429688-22.625 23.925782-23.507813 24.066406-1.523437.230469-2.625 1.578126-2.542969 3.117188.078126 1.542969 1.3125 2.769531 2.855469 2.84375 18.050781.851562 22.996094 25.4375 23.039063 25.683594.277344 1.421875 1.523437 2.433594 2.949218 2.433594.082032 0 .167969 0 .25-.007813 1.53125-.128906 2.714844-1.386719 2.75-2.921875.386719-17.019531 24.382813-25.554688 24.625-25.636719 1.351563-.472656 2.183594-1.828125 1.988282-3.246093-.195313-1.414063-1.363282-2.496094-2.792969-2.582032zm-27.132813 20.691406c-2.710937-6.261718-7.417968-13.8125-15.171874-17.753906 5.859374-2.808594 12.816406-7.824218 16.402343-16.542968 3.101563 6.140624 8.398438 13.757812 16.667969 17.445312-6.015625 3.28125-13.84375 8.808594-17.898438 16.851562zm0 0" fill="#3a312a"/><path d="m380.902344 56.6875c-1.378906 16.359375-18.425782 18.941406-18.425782 18.941406 14.636719.6875 18.285157 19.886719 18.285157 19.886719.3125-13.6875 18.84375-20.089844 18.84375-20.089844-13.882813-.828125-18.703125-18.738281-18.703125-18.738281zm0 0" fill="#d7e057"/><path d="m399.785156 72.433594c-11.53125-.691406-15.945312-16.375-15.988281-16.53125-.378906-1.40625-1.734375-2.320313-3.164063-2.203125-1.449218.128906-2.597656 1.28125-2.722656 2.734375-1.152344 13.742187-15.289062 16.132812-15.878906 16.226562-1.527344.230469-2.628906 1.582032-2.546875 3.121094.078125 1.539062 1.3125 2.769531 2.855469 2.84375 12.066406.566406 15.445312 17.285156 15.476562 17.449219.273438 1.425781 1.519532 2.441406 2.945313 2.441406.082031 0 .167969 0 .25-.011719 1.53125-.125 2.714843-1.386718 2.753906-2.921875.257813-11.417969 16.664063-17.265625 16.824219-17.320312 1.351562-.46875 2.1875-1.828125 1.992187-3.246094-.199219-1.414063-1.367187-2.496094-2.796875-2.582031zm-19.171875 13.589844c-1.847656-3.773438-4.675781-7.894532-8.890625-10.5625 3.710938-2.082032 7.394532-5.257813 9.738282-9.832032 2.117187 3.75 5.3125 7.910156 9.882812 10.449219-3.699219 2.199219-7.976562 5.476563-10.730469 9.945313zm0 0" fill="#3a312a"/><path d="m380.902344 3.371094c-1.378906 16.359375-18.425782 18.941406-18.425782 18.941406 14.636719.6875 18.285157 19.890625 18.285157 19.890625.3125-13.691406 18.84375-20.089844 18.84375-20.089844-13.882813-.832031-18.703125-18.742187-18.703125-18.742187zm0 0" fill="#d7e057"/><path d="m399.785156 19.117188c-11.53125-.691407-15.945312-16.375-15.988281-16.53125-.378906-1.402344-1.734375-2.316407-3.164063-2.203126-1.449218.132813-2.597656 1.285157-2.722656 2.734376-1.152344 13.742187-15.289062 16.132812-15.878906 16.230468-1.527344.226563-2.628906 1.578125-2.546875 3.121094.078125 1.539062 1.3125 2.765625 2.855469 2.839844 12.066406.570312 15.445312 17.289062 15.476562 17.453125.273438 1.425781 1.519532 2.441406 2.945313 2.441406.082031 0 .167969-.003906.25-.011719 1.53125-.125 2.714843-1.386718 2.753906-2.921875.257813-11.417969 16.664063-17.269531 16.824219-17.324219 1.351562-.46875 2.1875-1.824218 1.992187-3.242187-.199219-1.417969-1.367187-2.5-2.796875-2.585937zm-19.171875 13.589843c-1.847656-3.773437-4.675781-7.894531-8.890625-10.5625 3.710938-2.082031 7.394532-5.257812 9.738282-9.832031 2.117187 3.746094 5.3125 7.910156 9.886718 10.449219-3.703125 2.199219-7.980468 5.480469-10.734375 9.945312zm0 0" fill="#3a312a"/></svg>