<svg height="496pt" viewBox="0 0 496 496" width="496pt" xmlns="http://www.w3.org/2000/svg"><g fill="#f0bc5e"><path d="m96 344 8 48h24v24l48 32 48-32v-24h24l8-48-40-8-40 48-40-48zm0 0"/><path d="m224 152c0-36.136719-12.929688-71.078125-36.449219-98.519531 0 0-11.550781-13.480469-11.550781-13.480469l-11.550781 13.480469c-23.519531 27.441406-36.449219 62.382812-36.449219 98.519531zm0 0"/><path d="m472 496h-24v-56h-32v56h-24l-24-32v-56l32-32v-128l-32-32v-56l24-32h24v56h32v-56h24l24 32v56l-32 32v128l32 32v56zm0 0"/></g><path d="m309.574219 351.160156-85.574219-21.398437v-17.914063c17.574219-13.246094 29.550781-33.503906 31.632812-56.617187 18.414063-3.582031 32.367188-19.789063 32.367188-39.230469v-72c0-53.511719-37.742188-98.320312-88-109.34375v-10.65625c0-13.230469-10.769531-24-24-24s-24 10.769531-24 24v10.679688c-39.808594 8.734374-71.785156 38.632812-83.34375 77.320312h-36.65625c-13.230469 0-24 10.769531-24 24s10.769531 24 24 24h32v56c0 19.441406 13.953125 35.648438 32.367188 39.230469 2.082031 23.121093 14.066406 43.371093 31.632812 56.617187v17.914063l-85.574219 21.398437c-24.976562 6.230469-42.425781 28.566406-42.425781 54.320313v90.519531h352v-90.519531c0-25.753907-17.449219-48.089844-42.425781-54.320313zm-11.613281 13.574219-13.695313 17.113281c-7.90625 9.894532-12.265625 22.320313-12.265625 34.984375v63.167969h-88v-93.097656l34.9375-41.917969zm-185.960938-204.734375h37.121094c-10.617188 8.519531-23.503906 13.984375-37.121094 15.527344zm59.6875 0h17.433594c-9.609375 7.710938-21.097656 12.824219-33.28125 14.886719 5.847656-4.261719 11.175781-9.238281 15.847656-14.886719zm40 0h17.433594c-9.609375 7.710938-21.097656 12.824219-33.28125 14.886719 5.847656-4.261719 11.175781-9.238281 15.847656-14.886719zm44.3125 78.527344v-45.046875c9.289062 3.3125 16 12.113281 16 22.527343 0 10.417969-6.710938 19.207032-16 22.519532zm16-54.320313c-4.671875-3.535156-10.054688-6.183593-16-7.390625v-16.816406h16zm-104-160.207031c0-4.414062 3.585938-8 8-8s8 3.585938 8 8v8.40625c-2.65625-.191406-5.296875-.40625-8-.40625-2.695312 0-5.351562.144531-8 .335938zm8 24c52.9375 0 96 43.0625 96 96h-192c0-52.9375 43.0625-96 96-96zm-152 88c0-4.414062 3.585938-8 8-8h33.144531c-.753906 5.222656-1.144531 10.566406-1.144531 16h-32c-4.414062 0-8-3.585938-8-8zm72 24v16.808594c-5.945312 1.214844-11.328125 3.855468-16 7.390625v-24.199219zm-16 56c0-10.414062 6.710938-19.214844 16-22.527344v45.046875c-9.289062-3.304687-16-12.105469-16-22.519531zm32 32v-56.472656c11.214844-1.039063 22.078125-4.175782 32-9.238282v9.710938c14.03125 0 27.734375-3.449219 40-9.71875v9.71875c20.535156 0 40.375-7.328125 56-20.175781v76.175781c0 35.289062-28.710938 64-64 64s-64-28.710938-64-64zm64 80c11.375 0 22.191406-2.425781 32-6.726562v11.824218l-32 38.398438-32-38.398438v-11.824218c9.808594 4.300781 20.625 6.726562 32 6.726562zm-42.9375 16.976562 34.9375 41.925782v93.097656h-88v-63.167969c0-12.664062-4.359375-25.097656-12.265625-34.984375l-13.695313-17.113281zm-117.0625 60.503907c0-15.257813 8.648438-28.738281 21.761719-35.464844l17.46875 21.839844c5.65625 7.054687 8.769531 15.9375 8.769531 24.976562v63.167969h-48zm320 74.519531h-48v-63.167969c0-9.046875 3.113281-17.921875 8.769531-24.984375l17.46875-21.839844c13.113281 6.726563 21.761719 20.207032 21.761719 35.464844zm0 0"/><path d="m224 208c0 4.417969-3.582031 8-8 8s-8-3.582031-8-8 3.582031-8 8-8 8 3.582031 8 8zm0 0"/><path d="m144 208c0 4.417969-3.582031 8-8 8s-8-3.582031-8-8 3.582031-8 8-8 8 3.582031 8 8zm0 0"/><path d="m176 288c17.648438 0 32-14.351562 32-32h-16c0 8.824219-7.175781 16-16 16s-16-7.175781-16-16h-16c0 17.648438 14.351562 32 32 32zm0 0"/><path d="m424 240h16v144h-16zm0 0"/></svg>