<svg viewBox="-35 0 512 512.00154" xmlns="http://www.w3.org/2000/svg"><path d="m348.320312 88.539062c-1.414062-.355468-2.851562-.539062-4.273437-.539062-3.53125 0-6.871094 1.101562-9.929687 3.273438-7.9375 5.660156-8.742188 17.136718-8.425782 28.691406.734375 26.914062 1.480469 67.125 2.179688 106.570312l.050781 2.914063 2.699219-1.09375c4.058594-1.648438 8.46875-2.519531 12.75-2.519531.535156 0 1.074218.015624 1.605468.042968 5.148438.261719 10.277344 1.757813 14.832032 4.324219l2.910156 1.640625.070312-3.339844c.785157-36.34375 1.699219-77.324218 2.601563-103.710937.027344-1.101563.078125-2.214844.136719-3.34375l.003906-.117188c.320312-7.226562.621094-14.058593-2.425781-20.253906-3.042969-6.191406-8.707031-10.996094-14.785157-12.539063zm5.207032 42.695313c-.53125 2.625-1.332032 5.609375-3.28125 7.878906-1.1875 1.390625-3.328125 2.875-5.777344 2.875-.664062 0-1.316406-.109375-1.933594-.332031-1.933594-.695312-3.539062-2.566406-4.289062-5.007812-.679688-2.199219-.644532-4.617188-.621094-6.769532.023438-2.132812-.105469-4.492187-.234375-6.824218-.308594-5.863282-.65625-12.511719 1.226563-17.53125 1.554687-4.128907 4.339843-6.691407 7.277343-6.691407l.222657.003907c2.925781.128906 5.371093 2.757812 6.539062 7.03125 2.261719 8.226562 2.5625 17 .871094 25.367187zm0 0" fill="#d8deec"/><path d="m360.765625 247.585938c-4.8125-2-9.941406-3.011719-15.246094-3.011719-5.507812 0-11.054687 1.148437-16.039062 3.320312l-1.203125.523438v1.3125l.011718.933593c.835938 47.726563 1.703126 97.082032 2.5625 129l.066407 2.527344 2.445312-.648437c2.921875-.777344 6.027344-1.214844 8.414063-1.507813 2.265625-.285156 5.367187-.675781 8.765625-.675781 2.296875 0 4.433593.183594 6.355469.546875l2.292968.433594.078125-2.335938c.964844-29.855468 1.945313-75.664062 2.894531-119.964844l.105469-4.917968.070313-3.546875-.082032-1.625zm-15.5 7.25c-.003906 0-.007813.003906-.007813.003906l-.019531-2 .050781 2.007812.28125 20.5zm0 0" fill="#d8deec"/><path d="m201.082031 275.726562-.042969-.21875c-.589843-2.890624-1.089843-5.851562-1.617187-8.988281l-.109375-.660156c-1.910156-11.457031-3.886719-23.308594-9.730469-32.21875-6.8125-10.367187-18.363281-18.359375-32.519531-22.5-10.074219-2.945313-21.230469-4.503906-32.265625-4.503906-9.347656 0-18.128906 1.148437-25.390625 3.328125-10.636719 3.1875-20.148438 8.910156-27.507812 16.558594-15.03125 15.625-21.140626 37.90625-25.6875 57.566406-3.109376 13.445312-5.839844 26.992187-8.113282 40.265625l-.253906 1.484375 1.359375.652344c14.324219 6.890624 29.707031 11.972656 45.710937 15.109374l2.242188.441407.140625-2.28125c.371094-6.066407 5.316406-11.054688 10.050781-13.304688 5.949219-2.824219 12.878906-3.054687 19.046875-3.257812l24.332031-.78125c.898438-.03125 1.867188-.0625 2.878907-.0625 3.171875 0 7.214843.285156 10.371093 2.5 3.820313 2.695312 5.648438 7.390625 5.761719 14.785156l.039063 2.394531 2.347656-.460937c16.429688-3.226563 32.164062-8.492188 46.726562-15.628907.0625-.03125.132813-.046874.25-.085937l1.648438-.550781-.3125-1.707032c-2.929688-16.097656-6.195312-32.25-9.355469-47.875zm-23.582031-11.410156c-3.511719 6.824219-10.585938 10.5625-16.351562 13.058594-12.0625 5.203125-25.726563 7.957031-39.519532 7.957031-9.925781 0-19.679687-1.390625-28.988281-4.128906-12.191406-3.582031-20.027344-10.484375-21.492187-18.945313-1.765626-10.171874 5.90625-18.804687 10.636718-23.046874 11.640625-10.445313 27.28125-15.96875 45.234375-15.96875 7.242188 0 14.753907.917968 22.324219 2.730468 10.511719 2.527344 18.175781 6.558594 23.425781 12.332032 6.8125 7.480468 8.757813 18.175781 4.730469 26.011718zm12.867188 59.6875s9.441406-3.933594 9.445312-3.933594l.003906.035157zm0 0" fill="#d8deec"/><g fill="#bfc7d8"><path d="m361.558594 236.257812c-4.78125-3.765624-10.742188-6.007812-16.792969-6.304687-.472656-.023437-.949219-.035156-1.421875-.035156-4.976562 0-9.910156 1.261719-14.277344 3.65625l-1.054687.582031.015625 1.203125c.050781 3.246094.109375 6.5.164062 9.746094l.058594 3.183593 2.671875-1.035156c4.636719-1.796875 9.53125-2.710937 14.558594-2.710937 4.921875 0 9.710937.875 14.234375 2.605469l2.644531 1.007812.070313-2.828125c.058593-2.421875.109374-4.855469.160156-7.277344l.023437-1.101562-.917969-.605469zm0 0"/><path d="m356.09375 84.300781c.292969-4.160156.488281-7.859375.601562-11.316406l.042969-1.257813-1.121093-.582031c-.992188-.515625-1.980469-.90625-2.929688-1.15625-1.253906-.335937-2.570312-.503906-3.917969-.503906-3.074219 0-6.316406.859375-9.632812 2.554687l-.914063.46875-.152344 1.015626c-.410156 2.730468-.960937 5.578124-1.679687 8.710937l-.746094 3.226563 3.203125-.84375c1.71875-.457032 3.488282-.6875 5.257813-.6875 1.738281 0 3.488281.222656 5.214843.660156 1.316407.332031 2.644532.800781 3.953126 1.394531l2.617187 1.1875zm0 0"/><path d="m338.285156 136.648438c.746094 2.421874 2.34375 4.28125 4.265625 4.972656.59375.214844 1.230469.324218 1.886719.324218 2.46875 0 4.605469-1.476562 5.777344-2.851562 1.957031-2.273438 2.753906-5.25 3.273437-7.855469.59375-2.929687.945313-6.007812 1.039063-9.160156l.042968-1.433594-1.34375-.5c-2.210937-.820312-4.550781-1.238281-6.953124-1.238281-2.632813 0-5.277344.523438-7.648438 1.519531l-1.277344.621094.101563 2.378906c.121093 2.292969.238281 4.457031.210937 6.464844-.023437 2.238281-.042968 4.554687.625 6.757813zm0 0"/><path d="m354.476562 117.652344c-.203124-4.070313-.828124-8.03125-1.859374-11.769532-1.15625-4.257812-3.585938-6.878906-6.511719-7.011718l-.191407-.003906c-2.933593 0-5.714843 2.554687-7.257812 6.667968-1.460938 3.882813-1.535156 8.746094-1.4375 12.546875l.070312 2.707031 2.566407-.863281c2.0625-.691406 4.234375-1.046875 6.449219-1.046875 1.917968 0 3.808593.269532 5.617187.792969l2.691406.78125zm0 0"/><path d="m331.78125 41.417969 1.484375 1.8125 1.558594-1.75c.269531-.304688.5625-.585938.851562-.871094-.53125.527344-1.027343 1.085937-1.496093 1.667969l-.890626 1.109375.753907 1.203125c1.847656 2.957031 3.203125 6.25 3.921875 9.523437l.605468 2.757813 2.402344-1.488282c1.300782-.808593 2.707032-1.464843 4.171875-1.96875-2.074219.71875-4.023437 1.757813-5.746093 3.097657l-.875.683593.117187 1.105469c.339844 3.234375.335937 6.816407-.015625 10.648438l-.292969 3.257812 3.03125-1.21875c2.535157-1.019531 5.035157-1.535156 7.429688-1.535156 1.355469 0 2.667969.167969 3.914062.503906.402344.105469.855469.253907 1.386719.449219l2.667969.992188.027343-2.847657c.054688-5.214843-.15625-9.917969-.640624-14.375l-.171876-1.578125-1.578124-.191406c-.800782-.097656-1.621094-.148438-2.4375-.148438-1.113282 0-2.21875.09375-3.308594.269532 1.121094-.183594 2.253906-.292969 3.382812-.292969.480469 0 .960938.019531 1.441406.050781l2.511719.179688-.394531-2.484375c-.710938-4.492188-1.699219-8.558594-3.027344-12.433594-.257812-.753906-.53125-1.492187-.832031-2.242187l-.550781-1.363282-1.460938.117188c-2.605468.203125-5.175781.902344-7.558594 2.011718 1.996094-.929687 4.117188-1.589843 6.285157-1.898437l2.730469-.386719-1.214844-2.476562c-1.789063-3.636719-3.953125-7.039063-6.441406-10.113282l-.746094-.921874-1.164063.210937c-4.738281.855469-7.992187 4.292969-9.167969 5.726563-2.375 2.878906-3.863281 6.21875-5.007812 9.105468l-.527344 1.335938 1.101563.929687c1.34375 1.128907 2.613281 2.421875 3.769531 3.835938zm15.382812 11.410156c.414063-.101563.828126-.1875 1.25-.261719-.421874.074219-.835937.164063-1.25.261719zm-1.546874.429687c.351562-.109374.707031-.21875 1.0625-.3125-.355469.09375-.710938.199219-1.0625.3125zm-3.585938-17.125c-.597656.285157-1.183594.597657-1.757812.929688.574218-.335938 1.160156-.644531 1.757812-.929688zm-3.664062 2.171876c.53125-.382813 1.074218-.742188 1.632812-1.082032-.558594.339844-1.105469.699219-1.632812 1.082032zm-.15625.113281c-.898438.664062-1.742188 1.390625-2.527344 2.179687.785156-.789062 1.628906-1.515625 2.527344-2.179687zm0 0"/><path d="m332.414062 26.179688c2.015626-2.449219 4.519532-4.25 7.238282-5.203126l2.964844-1.042968-2.199219-2.242188c-4.257813-4.347656-8.984375-7.53125-14.054688-9.472656l-1.042969-.394531-.886718.675781c-3.542969 2.710938-6.191406 6.542969-7.453125 10.792969-1.140625 3.859375-1.121094 8.164062.0625 12.117187l.335937 1.128906 1.152344.253907c2.199219.480469 4.335938 1.335937 6.359375 2.550781l1.984375 1.191406.890625-2.140625c.921875-2.210937 2.40625-5.476562 4.648437-8.214843zm0 0"/><path d="m320.40625 466.847656c-2.941406-4.136718-8.386719-4.335937-13.207031-4.515625-.957031-.03125-1.890625-.070312-2.765625-.128906-1.429688-.101563-2.792969-.152344-4.058594-.152344-6.261719 0-10.9375 1.246094-14.71875 3.929688-1.160156.828125-2.292969 1.867187-3.464844 3.175781l-3.054687 3.402344 43.363281-.660156-.863281-2.589844c-.300781-.90625-.714844-1.730469-1.230469-2.460938zm0 0"/><path d="m298.089844 36.640625 1.117187 2.070313 1.863281-1.4375c1.671876-1.292969 3.445313-2.347657 5.265626-3.140626l1.261718-.546874-.0625-1.371094c-.136718-3.269532-.824218-6.519532-1.984375-9.597656 1.042969 2.753906 1.734375 5.625 1.964844 8.503906l.1875 2.332031 2.277344-.546875c1.167969-.285156 2.3125-.457031 3.417969-.519531.308593-.019531.621093-.03125.925781-.03125l2.839843.058593-.542968-2.480468c-.785156-3.59375-.671875-7.273438.324218-10.648438 1-3.382812 2.914063-6.535156 5.539063-9.121094l2.625-2.585937-3.601563-.792969c-1.308593-.285156-2.664062-.492187-4.035156-.609375-.832031-.066406-1.679687-.101562-2.523437-.101562-4.894531 0-9.863281 1.132812-14.773438 3.375l-2.476562 1.132812 1.820312 2.027344c1.921875 2.132813 3.527344 4.582031 4.808594 7.191406-1.441406-2.9375-3.335937-5.660156-5.617187-8.003906l-1.09375-1.125-1.351563.792969c-4.28125 2.511718-8.238281 5.8125-11.757813 9.800781l-1.761718 1.992187 2.40625 1.140626c5.476562 2.589843 10.070312 6.9375 12.9375 12.242187zm7.382812-14.230469c-.296875-.773437-.628906-1.535156-.988281-2.285156.359375.75.6875 1.511719.988281 2.285156zm0 0"/><path d="m291.175781 45.464844 1.753907 1.488281 1.230468-1.945313.25-.40625c.140625-.226562.277344-.449218.433594-.675781.972656-1.433593 2.09375-2.796875 3.324219-4.058593l.988281-1.007813-.621094-1.269531c-2.9375-5.992188-8.175781-10.941406-14.371094-13.589844l-1.457031-.621094-.9375 1.273438c-1.03125 1.398437-1.859375 2.601562-2.609375 3.792968-1.394531 2.25-2.714844 4.703126-3.921875 7.289063l-1.09375 2.335937 2.535157.476563c5.339843 1.003906 10.351562 3.394531 14.496093 6.917969zm0 0"/><path d="m272.707031 57.609375c4.382813 0 8.644531 1.253906 12.328125 3.621094l2.316406 1.488281.703126-2.660156c1.238281-4.703125 2.5625-8.402344 4.175781-11.636719l.675781-1.363281-1.132812-1.019532c-4.460938-4-10.167969-6.707031-16.070313-7.617187l-1.566406-.242187-.59375 1.472656c-1.855469 4.625-3.414063 9.722656-4.761719 15.589844l-.613281 2.664062 2.722656-.222656c.601563-.050782 1.210937-.074219 1.816406-.074219zm0 0"/><path d="m282.023438 75.921875 2.402343 1.25.488281-2.660156c.738282-4.015625 1.414063-7.289063 2.121094-10.304688l.300782-1.28125-1.054688-.78125c-3.902344-2.898437-8.75-4.492187-13.65625-4.492187-1.035156 0-2.070312.070312-3.078125.21875l-1.402344.199218-.277343 1.386719c-.617188 3.105469-1.207032 6.484375-1.84375 10.628907l-.351563 2.269531 2.296875.035156c4.898438.074219 9.761719 1.296875 14.054688 3.53125zm0 0"/><path d="m260.917969 169.667969-2.558594.722656.019531-2.671875c.03125-3.910156.089844-7.847656.179688-11.699219l.03125-1.359375 1.277344-.46875c2.8125-1.03125 5.78125-1.550781 8.820312-1.550781.414062 0 .828125.011719 1.242188.03125-.410157-.019531-.816407-.050781-1.230469-.050781-2.539063 0-5.050781.359375-7.449219 1.089844l-2.660156.796874.082031-2.777343c.148437-4.929688.308594-8.941407.476563-12.632813l.070312-1.488281 1.460938-.351563c2.832031-.6875 5.75-1.039062 8.671874-1.039062 3.089844 0 6.167969.390625 9.160157 1.160156l1.5.390625v1.539063c.007812 3.890625.046875 8.109375.128906 12.910156l.050781 2.890625-2.730468-.980469c-2.367188-.847656-4.851563-1.320312-7.390626-1.453125 3.09375.167969 6.164063.886719 8.949219 2.113281l1.171875.511719.027344 1.277344c.082031 4.019531.179688 8.019531.28125 12.019531l.070312 3.023438-2.800781-1.113282c-3.03125-1.1875-6.390625-1.816406-9.710937-1.816406-2.441406 0-4.839844.328125-7.140625.976563zm0 0"/><path d="m284.398438 77.320312-.230469 1.359376c-.679688 4.199218-1.269531 8.308593-1.730469 12.230468l-.078125.660156-.359375 3.4375c-.410156 3.960938-.730469 7.511719-.960938 10.871094l-.230468 3.390625-2.851563-1.851562c-3.6875-2.398438-8.128906-3.71875-12.519531-3.71875-.429688 0-.867188.011719-1.296875.039062l-2.351563.140625.238282-2.347656c.382812-3.671875.800781-7.390625 1.230468-11.03125l.191407-1.582031 1.589843-.167969c.730469-.082031 1.480469-.121094 2.230469-.121094 4.539063 0 8.96875 1.441406 12.5 4.039063l.03125-.007813-.492187-.351562c-3.460938-2.410156-7.71875-3.730469-11.980469-3.730469-.480469 0-.960937.011719-1.4375.042969l-2.433594.167968.3125-2.410156c.5-4.03125 1.058594-8.160156 1.648438-12.257812l.25-1.703125 1.902343-.007813c5.46875 0 10.878907 1.460938 15.628907 4.21875zm0 0"/><path d="m262.660156 120.820312-2.390625.257813.1875-2.410156c.332031-4.320313.722657-8.707031 1.140625-13.027344l.160156-1.652344 1.640626-.148437c.691406-.070313 1.390624-.101563 2.082031-.101563 5.328125 0 10.5 1.871094 14.539062 5.261719l.769531.640625-.050781 1c-.1875 3.359375-.339843 6.757813-.449219 10.109375l-.089843 2.730469-2.570313-.902344c-3.691406-1.289063-7.539062-1.949219-11.421875-1.949219-1.179687 0-2.378906.0625-3.546875.191406zm0 0"/><path d="m281.300781 205.679688-.023437-.011719.011718 1.203125c.019532 3.039062.011719 6.21875-.019531 9.726562l-.03125 2.960938-2.738281-1.128906c-2.871094-1.199219-6.0625-1.832032-9.210938-1.832032-2.390624 0-4.71875.363282-6.929687 1.0625l-2.429687.769532-.171876-2.550782c-.300781-4.847656-.539062-9.199218-.730468-13.300781l-.058594-1.449219 1.359375-.507812c2.101563-.792969 4.289063-1.179688 6.53125-1.179688.78125 0 1.570313.046875 2.339844.148438 4.140625.550781 8 2.488281 10.890625 5.460937l.890625.378907-2.941407-2.230469c-2.582031-1.960938-5.640624-3.230469-8.820312-3.648438-.78125-.101562-1.570312-.152343-2.359375-.152343-1.820313 0-3.640625.269531-5.410156.800781l-2.46875.742187-.101563-2.582031c-.160156-4.109375-.269531-7.929687-.351562-11.660156l-.027344-1.5 1.429688-.449219c2.621093-.820312 5.359374-1.242188 8.140624-1.242188 4.097657 0 8.179688.933594 11.796876 2.691407l1.101562.53125.03125 1.21875c.097656 4.289062.1875 8.75.25 13.628906zm0 0"/><path d="m261.789062 136.960938-2.550781.527343.140625-2.597656c.210938-3.859375.46875-7.8125.78125-12.082031l.109375-1.628906 1.621094-.210938c1.449219-.1875 2.9375-.289062 4.410156-.289062 4.359375 0 8.597657.808593 12.609375 2.410156l1.289063.519531-.03125 1.390625c-.078125 3.578125-.128907 6.910156-.140625 10.179688l-.007813 2.5-2.441406-.558594c-2.699219-.621094-5.488281-.929688-8.269531-.929688-2.53125 0-5.058594.257813-7.519532.769532zm0 0"/><path d="m258.4375 182.507812c-.046875-3.148437-.078125-6.597656-.078125-10.539062v-1.429688l1.359375-.460937c2.660156-.910156 5.46875-1.359375 8.359375-1.359375 3.972656 0 7.921875.890625 11.410156 2.570312l1.101563.53125.027344 1.230469.363281 13.480469-2.820313-1.121094c-3.210937-1.28125-6.609375-1.929687-10.121094-1.929687-2.398437 0-4.789062.308593-7.082031.929687l-2.476562.667969zm0 0"/><path d="m258.988281 273.46875c6.128907 6.242188 9.039063 15.730469 7.410157 24.160156l-.097657.53125-.363281.410156c-3.769531 4.289063-8.546875 7.328126-13.46875 8.570313l-3.140625.789063.699219-3.160157c1.871094-8.550781 1.78125-17.550781-.269532-26.019531l-.4375-1.78125 1.738282-.589844c1.851562-.621094 3.589844-1.628906 5.191406-3.019531l1.417969-1.230469zm0 0"/><path d="m276.339844 273.507812.109375.433594-.089844.429688c-1.429687 7.160156-3.261719 12.679687-5.742187 17.359375l-3.296876 6.199219-.472656-7.011719c-.429687-6.558594-3.320312-12.96875-7.917968-17.570313l-1.25-1.238281 1.078124-1.398437c1.140626-1.472657 2.042969-3.0625 2.671876-4.722657.300781-.808593.539062-1.578125.730468-2.328125l.429688-1.679687 1.730468.1875c2.867188.320312 5.609376 1.550781 7.71875 3.472656 2.230469 2.027344 3.75 4.769531 4.269532 7.730469.011718.046875.019531.089844.03125.136718zm0 0"/><path d="m278.4375 253.839844.820312.691406-.117187 1.058594c-.421875 3.789062-.933594 7.628906-1.511719 11.410156l-.761718 4.871094-2.847657-4.023438c-.609375-.867187-1.261719-1.597656-1.960937-2.238281-2.058594-1.871094-4.71875-3.089844-7.488282-3.449219l-1.953124-.25.222656-1.949218c.25-2.191407.289062-4.589844.117187-7.363282l-.097656-1.679687 1.640625-.386719c1.148438-.273438 2.359375-.410156 3.570312-.410156 3.789063 0 7.570313 1.359375 10.367188 3.71875zm0 0"/><path d="m280.597656 238.078125-.070312 1.132813c-.269532 4.257812-.558594 8.089843-.910156 11.730468l-.296876 3.199219-2.742187-1.691406c-2.527344-1.558594-5.449219-2.378907-8.449219-2.378907-1.039062 0-2.089844.097657-3.101562.308594l-2.148438.441406-.519531-4.761718v-.128906c-.441406-4.019532-.851563-8.089844-1.199219-12.101563l-.160156-1.757813 1.71875-.371093c.839844-.191407 1.730469-.28125 2.640625-.28125 1.859375 0 3.800781.371093 5.75 1.113281 3.140625 1.1875 6.019531 3.167969 8.550781 4.910156zm0 0"/><path d="m280.117188 219.210938 1.113281.570312-.023438 1.25c-.089843 4.738281-.226562 9.128906-.4375 13.4375l-.179687 3.519531-2.929688-1.949219c-1.832031-1.230468-4.042968-2.597656-6.542968-3.539062-1.949219-.742188-3.878907-1.109375-5.738282-1.109375-.769531 0-1.519531.058594-2.230468.1875l-2.160157.382813-.179687-2.179688c-.269532-3.230469-.519532-6.472656-.757813-9.710938l-.101562-1.492187 1.398437-.519531c2.53125-.9375 5.222656-1.417969 8-1.417969 3.761719 0 7.480469.890625 10.769532 2.570313zm0 0"/><path d="m249.671875 278.550781-.394531-1.601562-1.886719.097656c-.09375.003906-.1875.011719-.28125.011719-.992187 0-1.984375-.125-2.941406-.375-.359375-.09375-.710938-.203125-1.0625-.332032l-1.617188-.59375-.824219 1.515626c-3.914062 7.195312-6.5 15.28125-7.480468 23.375l-.128906 1.074218.828124.699219c3.671876 3.089844 7.664063 4.863281 11.855469 5.269531.6875.070313 1.347657.078125 1.960938.078125h1.566406l.375-1.515625c2.25-9.054687 2.261719-18.632812.03125-27.703125zm0 0"/><path d="m240.617188 277.292969.839843-1.542969-1.425781-1.03125c-1.675781-1.214844-3.113281-2.804688-4.269531-4.730469l-1.085938-1.808593.042969-.027344-.523438-1.484375c-.117187-.332031-.222656-.671875-.328124-1.042969-.667969-2.265625-1.011719-4.769531-1.078126-7.886719l-.039062-1.792969-1.785156-.15625c-.410156-.039062-.820313-.054687-1.234375-.054687-1.753907 0-3.453125.320313-5.042969.957031-1.886719.753906-3.621094 1.960938-5.011719 3.492188l-.609375.675781.472656 4.03125c.429688 3.695313.960938 8.292969 1.773438 12.644531l1.035156 5.558594 2.6875-4.972656c2.011719-3.722656 4.902344-6.875 8.359375-9.113282l.992188-.644531-1.46875 1.003907c-4.804688 3.285156-8.441407 8.394531-9.980469 14.023437l-.148438.550781.160157.542969c.820312 2.773437 1.753906 5.214844 2.851562 7.464844 1.144531 2.328125 2.621094 4.617187 4.273438 6.621093l2.785156 3.375.730469-4.316406c1.210937-7.140625 3.574218-13.980468 7.027344-20.335937zm0 0"/><path d="m219.5625 242.363281c2.46875-1.152343 5.21875-1.761719 7.949219-1.761719 1.117187 0 2.230469.101563 3.3125.304688l2.347656.4375.019531-2.390625c.027344-3.949219-.011718-8.101563-.121094-12.691406l-.035156-1.476563-1.425781-.402344c-1.027344-.289062-2.144531-.433593-3.324219-.433593-1.636718 0-3.378906.273437-5.183594.816406-1.914062.574219-3.695312 1.347656-5.578124 2.164063l-.183594.082031c-.226563.101562-.457032.199219-.683594.292969l-1.035156.410156 2.082031-.898438c1.738281-.753906 3.53125-1.53125 5.382813-2.082031 1.824218-.550781 3.589843-.828125 5.246093-.828125.785157 0 1.546875.0625 2.265625.191406l2.433594.4375-.082031-2.472656c-.125-3.695312-.316407-7.558594-.5625-11.488281l-.066407-1.007813-.851562-.550781c-1.59375-1.019531-3.585938-1.5625-5.765625-1.5625-1.195313 0-2.433594.164063-3.59375.476563-3.039063.832031-5.707031 2.554687-7.6875 3.960937l-.964844.683594 1.777344 15.3125.003906-.003907 1.8125 15.652344zm0 0"/><path d="m224.679688 256.65625c1.589843-.632812 3.289062-.953125 5.046874-.953125.324219 0 .644532.011719.964844.03125l2.070313.144531.066406-2.078125c.019531-.628906.039063-1.246093.070313-1.886719l.019531-.542968c.09375-2.570313.164062-5.273438.21875-8.265625l.03125-1.621094-1.578125-.363281c-1.3125-.304688-2.675782-.457032-4.058594-.457032-3.273438 0-6.492188.839844-9.300781 2.433594l-1.152344.65625 1.914063 16.476563 2.753906-1.960938c.953125-.675781 1.9375-1.21875 2.933594-1.613281zm0 0"/><path d="m222.097656 207.898438c1.171875-.320313 2.371094-.484376 3.554688-.484376 1.324218 0 2.59375.203126 3.765625.601563l2.863281.96875-.226562-3.015625c-.273438-3.617188-.558594-6.871094-.863282-9.949219l-.117187-1.164062-1.074219-.46875c-2.265625-.992188-4.75-1.515625-7.175781-1.515625-.582031 0-1.167969.03125-1.730469.089844-3.027344.300781-5.96875 1.425781-8.511719 3.253906l-.953125.6875 1.804688 15.515625 2.695312-1.722657c2.171875-1.390624 4.070313-2.28125 5.96875-2.796874zm0 0"/><path d="m221.082031 192.917969c.550781-.054688 1.113281-.085938 1.675781-.085938 1.777344 0 3.582032.28125 5.359376.828125l2.917968.898438-.339844-3.03125c-.679687-6.074219-1.511718-12.226563-2.472656-18.28125l-.15625-.988282-.882812-.464843c-1.433594-.757813-3.164063-1.160157-5.007813-1.160157-1.335937 0-2.703125.210938-3.953125.609376-3.101562.988281-5.824218 2.925781-8.078125 4.691406l-.882812.695312 2.328125 19.988282 2.621094-1.476563c2.164062-1.21875 4.539062-1.984375 6.871093-2.222656zm0 0"/><path d="m218.214844 171.207031c1.316406-.417969 2.65625-.632812 3.980468-.632812.976563 0 1.921876.117187 2.820313.34375l2.984375.757812-.519531-3.035156c-.566407-3.296875-1.195313-6.664063-1.917969-10.300781l-.164062-.8125-.691407-.460938c-2.242187-1.496094-4.9375-2.320312-7.589843-2.320312-.535157 0-1.066407.035156-1.589844.101562-2.804688.355469-5.519532 1.671875-7.648438 3.707032l-.746094.710937.148438 1.023437c.269531 1.863282.527344 3.816407.78125 5.960938l1.179688 10.222656 2.761718-1.976562c2.265625-1.621094 4.238282-2.667969 6.210938-3.289063zm0 0"/><path d="m215.523438 154.804688c.5-.0625 1.011718-.09375 1.527343-.09375 1.621094 0 3.25.296874 4.835938.882812l3.390625 1.253906-.742188-3.539062c-.863281-4.136719-1.78125-8.191406-2.722656-12.050782-.289062-1.199218-.605469-2.402343-.921875-3.621093l-.503906-1.929688-1.578125.03125c-5.488282.109375-10.984375 2.5625-14.703125 6.558594l-.8125.871094.378906 1.128906c1.125 3.351563 2.0625 7.117187 2.871094 11.503906l.554687 3.023438 2.539063-1.734375c1.804687-1.230469 3.84375-2.023438 5.886719-2.285156zm0 0"/><path d="m217.875 135.734375 2.488281-.15625-.691406-2.394531c-1.335937-4.617188-2.730469-8.632813-4.257813-12.277344l-.585937-1.402344-1.507813.191406c-6.453124.816407-12.441406 4.925782-15.625 10.734376l-.609374 1.109374.746093 1.027344c1.640625 2.257813 3.09375 4.867188 4.328125 7.757813l1.097656 2.578125 2.082032-1.878906c3.457031-3.117188 7.910156-4.996094 12.535156-5.289063zm0 0"/><path d="m212.226562 119.824219 2.570313-.480469-1.136719-2.355469c-2.953125-6.109375-6.359375-11.015625-10.410156-14.984375l-1.007812-.992187-1.269532.621093-.28125.144532-.085937.078125c-7.054688 4.476562-11.816407 12.46875-12.429688 20.898437l-.089843 1.238282 1.070312.632812c2.234375 1.3125 4.285156 2.949219 6.105469 4.863281l1.746093 1.839844 1.382813-2.128906c3.125-4.832031 8.296875-8.335938 13.835937-9.375zm0 0"/><path d="m199.859375 102.332031 2.238281-1.53125-2.125-1.6875c-.609375-.480469-1.296875-1.027343-2.027344-1.519531-3.324218-2.292969-7.136718-4.042969-11.332031-5.203125l-1.578125-.4375-.738281 1.460937c-3.878906 7.664063-5.757813 16.566407-5.3125 25.117188l-.003906.003906-.011719-.042968c-.453125-8.289063 1.226562-16.667969 4.855469-24.226563l1.148437-2.390625-2.617187-.449219c-2.425781-.414062-4.941407-.621093-7.476563-.621093-2.550781 0-5.140625.210937-7.703125.628906l-2.476562.40625.949219 2.324218c3.269531 8.03125 5.308593 16.460938 6.058593 25.058594l.164063 1.90625 1.914062-.082031c.464844-.019531.925782-.03125 1.382813-.03125.601562 0 1.195312.019531 1.78125.050781l1.96875.144532 1.488281.25c1.785156.300781 3.523438.777343 5.164062 1.421874l2.375.925782.335938-2.527344c1.011719-7.605469 5.339844-14.691406 11.578125-18.949219zm0 0"/><path d="m165.304688 93.464844-.667969-1.589844-1.671875.425781c-2.8125.71875-5.605469 1.714844-8.300782 2.964844-2.132812.992187-4.304687 2.195313-6.457031 3.582031l-2.523437 1.625 2.46875 1.703125c6.460937 4.453125 11.121094 11.75 12.464844 19.523438l.414062 2.394531 2.269531-.863281c2.152344-.820313 4.40625-1.425781 6.707031-1.796875l1.835938-.292969-.164062-1.855469c-.777344-8.90625-2.921876-17.589844-6.375-25.820312zm0 0"/><path d="m153.953125 324.894531c-3.121094-2.199219-7.042969-2.496093-10.46875-2.496093-.894531 0-1.816406.023437-2.761719.054687l-24.328125.789063c-6.125.195312-13.066406.417968-19.039062 3.242187-4.960938 2.371094-10 7.578125-10.058594 13.867187l-.015625 1.699219 1.671875.289063c11.3125 1.972656 22.914063 2.972656 34.484375 2.972656 11.609375 0 23.253906-1.007812 34.613281-2.992188l1.660157-.289062-.003907-1.683594c-.007812-4.90625-.613281-11.84375-5.753906-15.453125zm0 0"/><path d="m146.773438 101.320312-1.164063-.707031-1.085937.828125c-4.578126 3.496094-8.78125 7.761719-12.484376 12.683594l-1.867187 2.488281 3.035156.667969c2.777344.613281 5.40625 1.773438 7.601563 3.359375 3.195312 2.300781 5.738281 5.640625 7.160156 9.394531l1.050781 2.785156 2.179688-2.023437c2.582031-2.398437 5.429687-4.402344 8.46875-5.957031l1.257812-.640625-.183593-1.398438c-1.144532-8.722656-6.496094-16.953125-13.96875-21.480469zm0 0"/><path d="m124.90625 136.816406c2.582031 0 5.160156.542969 7.453125 1.566406 2.398437 1.082032 4.597656 2.742188 6.359375 4.804688l1.886719 2.210938 1.390625-2.550782c1.808594-3.316406 3.824218-6.230468 6.167968-8.898437l.695313-.796875-.265625-1.027344c-1.199219-4.625-3.972656-8.691406-7.800781-11.445312-2.734375-1.980469-6.011719-3.257813-9.480469-3.683594l-1.234375-.15625-.679687 1.039062c-2.117188 3.21875-4.023438 6.648438-5.664063 10.191406-.859375 1.847657-1.671875 3.863282-2.480469 6.152344l-1.035156 2.921875 3.089844-.261719c.53125-.046874 1.066406-.066406 1.597656-.066406zm0 0"/><path d="m123.113281 153.808594c.960938 0 1.921875.074218 2.859375.21875 2.703125.417968 5.359375 1.449218 7.6875 2.980468l2.246094 1.480469.769531-2.578125c.96875-3.25 2.109375-6.339844 3.386719-9.179687l.460938-1.027344-.636719-.929687c-1.90625-2.765626-4.582031-5.023438-7.539063-6.359376-2.257812-1.011718-4.816406-1.546874-7.398437-1.546874-1.199219 0-2.394531.113281-3.558594.335937l-1.199219.234375-.34375 1.171875c-1.171875 4.011719-2.179687 8.484375-3 13.292969l-.488281 2.867187 2.851563-.570312c1.296874-.257813 2.609374-.390625 3.902343-.390625zm0 0"/><path d="m127.929688 168.628906c1.285156 0 2.558593.109375 3.789062.320313l1.964844.34375.34375-1.96875c.441406-2.507813.949218-4.910157 1.554687-7.34375l.3125-1.261719-1.027343-.796875c-2.597657-2.023437-5.675782-3.359375-8.898438-3.855469-.941406-.148437-1.90625-.222656-2.867188-.222656-1.847656 0-3.703124.269531-5.511718.796875l-1.238282.363281-.179687 1.277344c-.554687 3.917969-1.023437 8.164062-1.402344 12.628906l-.289062 3.390625 3.101562-1.394531c3.304688-1.492188 6.882813-2.277344 10.347657-2.277344zm0 0"/></g><path d="m435.992188 483.417969c-7.605469-12.941407-14.851563-24.042969-26.5-28.835938-7.011719-2.902343-14.871094-3.046875-22.46875-3.191406l-69.898438-1.25c-1.925781-.035156-3.898438-.070313-5.902344-.070313-7.417968 0-16.003906.460938-23.4375 3.882813-6.839844 3.140625-12.949218 8.871094-18.679687 17.515625-.335938.503906-.796875 1.148438-1.335938 1.898438l-.363281.503906c-7.386719 10.273437-8.195312 13.53125-8.070312 15.222656l.074218 1.039062.894532.535157c1.394531.832031 3.273437 1.003906 5.40625 1.128906 21.5625 1.289063 43.515624 1.945313 65.246093 1.945313 34.023438 0 68.347657-1.597657 102.011719-4.75 1.417969-.136719 2.441406-.351563 3.125-.660157l1.535156-.691406-.421875-1.632813c-.167969-.648437-.566406-1.496093-1.214843-2.589843zm-114.917969-6.332031c-1.507813 2.8125-4.566407 5.011718-8.390625 6.03125-2.773438.742187-5.589844.84375-8.226563.84375-.777343 0-1.5625-.011719-2.332031-.019532l-22.042969-.292968c-1.746093-.011719-3.847656-.234376-4.613281-1.851563-.722656-1.53125.394531-3.410156.9375-4.324219 2.402344-4.035156 5.125-8.605468 9.242188-11.523437 3.738281-2.652344 8.566406-3.941407 14.765624-3.941407 1.238282 0 2.554688.050782 4.027344.15625.882813.0625 1.820313.101563 2.777344.132813 4.8125.171875 10.265625.371094 13.21875 4.527344 2.089844 2.953125 2.347656 7.078125.636719 10.261719zm0 0" fill="#4996f2"/><path d="m39.140625 482.621094c2.261719 2.679687 5.082031 5.09375 8.382813 7.171875l3.65625 2.300781-.609376-4.273438c-.667968-4.6875-1.335937-10.144531-.761718-15.613281.726562-6.953125 3.550781-12.871093 7.753906-16.238281 4.601562-3.699219 10.308594-4.457031 17.46875-4.457031.75 0 1.507812.007812 2.265625.019531 33.824219.519531 68.058594 2.375 101.757813 5.519531 5.898437.550781 12.503906 1.554688 16.136718 6.542969 2.941406 4.050781 3.144532 9.554688 3.097656 15.308594l-.179687 21.980468 3.007813-1.6875c1.785156-1.003906 3.324218-2.035156 4.703124-3.15625 12.5625-10.226562 15.035157-28.726562 15.785157-43.699218 1.753906-34.96875-1.238281-72.140625-9.707031-120.535156l-.453126-2.597657-2.378906 1.136719c-26.019531 12.453125-55.628906 19.035156-85.617187 19.035156-29.289063 0-58.300781-6.292968-83.894531-18.203125l-2.402344-1.117187-.417969 2.617187c-5.957031 37.4375-8.640625 74.4375-7.984375 109.96875.246094 13.679688 1.273438 29.175781 10.390625 39.976563zm19.613281-104.945313c2.808594-2.484375 6.253906-4.386719 10.53125-5.820312 4.253906-1.429688 8.820313-2.195313 12.320313-2.707031 11.851562-1.730469 23.914062-2.609376 35.855469-2.609376 15.234374 0 30.601562 1.425782 45.671874 4.238282.824219.152344 1.644532.292968 2.453126.433594l1.203124.210937c9.921876 1.710937 19.296876 3.328125 24.875 14.03125 5 9.621094 4.980469 21.117187-.046874 30-8.691407 15.363281-28.027344 19.996094-41.816407 22.140625-11.191406 1.734375-21.304687 2.574219-30.914062 2.574219-8.289063 0-16.273438-.660157-23.734375-1.96875-17.261719-3.03125-29.945313-9.636719-37.695313-19.636719-8.832031-11.378906-10.417969-30.523438 1.296875-40.886719zm0 0" fill="#4996f2"/><path d="m104.996094 204.371094 2.253906-.390625c5.511719-.957031 11.425781-1.441407 17.574219-1.441407 6.542969 0 13.191406.546876 19.75 1.625l2.191406.359376.128906-2.214844c.371094-6.191406-.113281-11.085938-1.511719-15.410156-1.847656-5.648438-5.453124-10.199219-9.898437-12.476563-2.210937-1.136719-4.820313-1.734375-7.542969-1.734375-5.988281 0-11.972656 2.722656-16.007812 7.285156-4.859375 5.496094-7.355469 13.347656-7.023438 22.113282zm0 0" fill="#4996f2"/><path d="m120.132812 409.953125c.996094.433594 2.078126.652344 3.214844.652344 2.429688 0 4.800782-1.023438 6.339844-2.738281 2.335938-2.605469 2.773438-6.699219 1.039062-9.730469-1.484374-2.601563-4.070312-4.097657-7.085937-4.097657-.636719 0-1.28125.070313-1.929687.207032-2.796876.613281-6.199219 2.894531-6.585938 7.296875-.304688 3.484375 1.800781 7.023437 5.007812 8.410156zm0 0" fill="#4996f2"/><path d="m367.671875 446.972656.195313-1.820312c1.535156-14.285156 1.773437-28.769532.707031-43.054688-.375-4.890625-1.046875-10.40625-4.253907-13.988281-2.800781-3.140625-7.238281-4.664063-13.566406-4.664063-2.351562 0-5.042968.203126-8.476562.628907-6.53125.824219-12.691406 1.914062-16.25 6.15625-3.324219 3.945312-3.597656 9.789062-3.597656 15.929687l.019531 40.003906zm0 0" fill="#5bd0fc"/><path d="m51.21875 491.898438.945312.460937c7.464844 3.621094 15.875 5.546875 22.367188 6.820313 23.089844 4.539062 48.074219 6.746093 76.382812 6.746093 5.84375 0 11.917969-.097656 18.058594-.289062 9.480469-.292969 19.417969-1.03125 27.851563-4.410157l1.242187-.5.183594-21.820312c.050781-5.75-.144531-11.25-3.085938-15.285156-3.628906-4.984375-9.949218-5.960938-16.109374-6.535156-33.734376-3.144532-67.972657-5.007813-101.753907-5.527344-.75-.011719-1.5-.019532-2.246093-.019532-6.191407 0-12.597657.539063-17.480469 4.453126-4.183594 3.375-7 9.285156-7.722657 16.214843-.65625 6.253907.292969 12.554688 1.210938 18.648438zm77.582031 2.011718c-20.058593 0-39.957031-2.320312-59.15625-6.9375 19.21875 4.578125 39.117188 6.902344 59.148438 6.898438 16.8125 0 33.578125-1.644532 49.84375-4.855469-16.246094 3.25-33.015625 4.894531-49.835938 4.894531zm-59.316406-29.816406c19.265625 4.609375 39.21875 6.945312 59.300781 6.945312 16.816406 0 33.585938-1.648437 49.851563-4.859374-16.230469 3.25-33 4.898437-49.835938 4.898437-20.085937 0-40.042969-2.335937-59.332031-6.972656 0 0 .011719-.007813.019531-.007813zm.003906 11.421875h-.003906c19.28125 4.605469 39.234375 6.941406 59.316406 6.941406h.003907c16.8125 0 33.578124-1.648437 49.832031-4.859375-16.28125 3.253906-33.046875 4.902344-49.835938 4.902344-20.085937 0-40.042969-2.339844-59.332031-6.972656 0-.003906.011719-.011719.019531-.011719zm0 0" fill="#5bd0fc"/><path d="m97.78125 432.910156.109375 1.617188 1.601563.230468c6.128906.882813 12.660156 1.332032 19.410156 1.332032 8.363281 0 17.464844-.6875 27.058594-2.050782l1.304687-.183593.34375-1.273438c4.839844-17.914062 4.648437-37.332031-.492187-55.148437 4.980468 17.203125 5.347656 36.09375.980468 53.46875l-.742187 2.957031 3.007812-.496094c19.890625-3.273437 31.875-9.601562 37.714844-19.917969 4.285156-7.585937 4.273437-17.835937-.035156-26.109374-4.636719-8.902344-12.265625-10.222657-21.949219-11.898438-1.21875-.207031-2.453125-.425781-3.710938-.664062-4.371093-.808594-8.996093-1.53125-13.757812-2.148438l-3.105469-.402344v.011719l-1.292969-.140625c-8.953124-.984375-17.957031-1.484375-26.769531-1.484375-4.421875 0-8.902343.125-13.320312.363281l-1.519531.082032-.324219 1.488281c-4.320313 19.839843-5.839844 40.152343-4.511719 60.367187zm79.976562-31.632812-.003906.035156-10.148437 1.164062zm-31.296874-26.066406c.195312.613281.367187 1.234374.546874 1.851562-.324218-1.109375-.664062-2.214844-1.027343-3.3125l-.023438-.132812zm-31.371094 26.332031c.320312-3.644531 2.917968-6.519531 6.617187-7.332031.652344-.140626 1.3125-.214844 1.960938-.214844 2.976562 0 5.625 1.542968 7.09375 4.121094 1.734375 3.050781 1.296875 7.164062-1.039063 9.773437-1.546875 1.722656-3.9375 2.746094-6.382812 2.746094-1.136719 0-2.222656-.21875-3.222656-.652344-3.21875-1.398437-5.332032-4.949219-5.027344-8.441406zm0 0" fill="#5bd0fc"/><path d="m95.332031 434.085938 2.511719.457031-.15625-2.542969c-1.199219-19.5625.261719-39.191406 4.339844-58.34375l.550781-2.601562-2.652344.191406c-5.847656.417968-11.8125 1.066406-17.726562 1.925781-7.082031 1.042969-15.109375 2.574219-20.753907 7.558594-9.84375 8.710937-8.304687 25.617187-.765624 35.34375 7.03125 9.0625 18.6875 15.121093 34.652343 18.011719zm-23.480469-32.808594 10.140626 1.234375-10.15625-1.21875c0-.015625.007812-.015625.015624-.015625zm0 0" fill="#5bd0fc"/><path d="m436.660156 492.546875-1.417968.253906c-.722657.128907-1.375.195313-1.886719.246094-1.28125.121094-2.566407.230469-3.851563.335937-.867187.074219-4.257812.371094-4.257812.371094l-1.359375 14.394532 2.246093-.050782c2.683594-.054687 5.484376-.289062 7.824219-1.59375 2.210938-1.234375 3.835938-3.644531 4.34375-6.4375.394531-2.207031.058594-4.429687-.949219-6.261718zm0 0" fill="#5b5d6d"/><path d="m422.820312 493.964844c-3.03125.253906-6.070312.488281-9.113281.722656l-2.074219.160156.042969 13.480469 2.488281-.035156c2.628907-.039063 5.265626-.078125 7.902344-.125l1.785156-.03125 1.351563-14.371094zm0 0" fill="#5b5d6d"/><path d="m409.457031 495.003906c-2.257812.160156-4.535156.3125-6.808593.460938l-2.289063.152344.058594 12.867187 11.21875-.140625-.042969-13.488281zm0 0" fill="#5b5d6d"/><path d="m398.21875 495.742188c-3.117188.191406-6.21875.371093-9.332031.53125l-1.949219.097656.324219 12.21875 1.960937-.011719c2.925782-.019531 5.839844-.046875 8.757813-.074219l2.394531-.023437-.042969-12.867188zm0 0" fill="#5b5d6d"/><path d="m384.855469 496.480469c-2.046875.105469-4.089844.195312-6.132813.28125l-3.882812.171875-.332032 10.664062v-.9375c0-.066406 0-.128906-.007812-.1875l.296875-9.546875-2.144531.082031c-2.816406.113282-5.628906.203126-8.457032.292969l-2.09375.066407.714844 9.121093-.03125.199219-.71875-9.332031-1.90625.054687c-2.335937.070313-4.675781.117188-7.015625.167969l-2.429687.050781 1.292968 9.011719v.1875l-1.332031-9.207031-1.761719.027344c-3.019531.050781-6.042968.089843-9.078124.109374l-2.421876.015626.476563 2.375 1.183594 6.105468-.003907.03125-1.691406-8.503906-3.28125.019531c-1.050781.007813-2.105468.019531-3.15625.019531l-1.511718-.011718h-1.90625l-.511719 10.625 2.074219.027344c2.566406.027343 5.117187.046874 7.683593.066406l1.9375.015625v.011719l5.296875.035156c1.984375.019531 3.96875.03125 5.949219.039062l2.320313.007813-.003907-.003907 10.242188.035157h2.296875l9.703125-.007813v-.011718l4.960937-.019532c1.90625-.003906 3.8125-.007812 5.722656-.019531l2.039063-.015625-.332031-12.21875zm0 0" fill="#5b5d6d"/><path d="m325.402344 497.800781c-3.054688-.019531-6.121094-.050781-9.175782-.089843l-2.15625-.03125.644532 10.582031 12.257812.175781.515625-10.625zm0 0" fill="#5b5d6d"/><path d="m275.539062 481.863281c.800782 1.511719 2.851563 1.734375 4.554688 1.757813l22.023438.277344c.78125.011718 1.566406.023437 2.351562.023437 2.484375 0 5.402344-.101563 8.203125-.839844 3.816406-1.011719 6.867187-3.207031 8.367187-6.015625.441407-.820312.761719-1.738281.945313-2.730468l.449219-2.402344-42.941406.652344-.578126.890624c-.753906 1.15625-1.542968 2.4375-2.46875 4.011719-.859374 1.425781-1.570312 2.933594-.953124 4.273438zm0 0" fill="#5b5d6d"/><path d="m312.191406 497.648438c-2.453125-.039063-4.898437-.089844-7.34375-.148438l-2.359375-.058594 1.5 10.628906 10.699219.195313-.644531-10.585937zm0 0" fill="#5b5d6d"/><path d="m292.859375 497.15625.304687 10.699219 2.03125.035156c2.125.039063 4.261719.082031 6.398438.128906l2.351562.054688-1.492187-10.621094zm0 0" fill="#5b5d6d"/><path d="m290.941406 497.082031c-2.476562-.089843-4.949218-.191406-7.433594-.289062l-2.316406-.09375.957032 8.90625.214843 1.328125 1.246094.394531.460937.285156.542969.015625c2.132813.0625 4.265625.121094 6.398438.171875l2.105469.046875-.304688-10.699218zm0 0" fill="#5b5d6d"/><path d="m279.429688 496.601562c-2.164063-.101562-4.34375-.210937-6.507813-.320312l-2.351563-.121094 1.242188 11.121094 1.730469.058594c2.167969.070312 4.332031.121094 6.511719.167968l2.28125.050782-1.195313-10.878906zm0 0" fill="#5b5d6d"/><path d="m268.851562 496.054688c-.5625-.035157-1.125-.066407-1.691406-.097657-.5625-.027343-1.128906-.058593-1.683594-.09375l-.265624-.015625c-.488282-.035156-1.027344-.070312-1.589844-.128906l-1.171875-.199219-.660157 1.042969c-.9375.894531-1.386718 2.179688-1.265624 3.59375.128906 1.917969 1.230468 3.875 2.789062 4.972656 1.972656 1.410156 4.363281 1.804688 5.992188 1.980469l2.476562.265625-1.253906-11.21875zm0 0" fill="#5b5d6d"/><path d="m240.386719 391.808594c-2.40625-3.847656-7.152344-7.730469-12.320313-7.730469-.484375 0-.972656.035156-1.410156.097656-.078125.007813-.15625.011719-.230469.011719-.144531 0-.285156-.011719-.421875-.035156l-2.550781-.390625.253906 2.566406c2.367188 23.863281 3.011719 45.519531 1.964844 66.210937-.429687 8.589844-1.429687 19.734376-5.382813 29.734376l-.6875 1.742187 1.691407.800781c1.585937.75 3.351562 1.128906 5.25 1.128906.675781 0 1.367187-.046874 2.046875-.144531 4.734375-.675781 9.453125-3.507812 12.308594-7.394531 5.132812-6.964844 6.136718-16.386719 6.457031-25.527344.515625-14.59375-.164063-29.332031-2.011719-43.804687-.769531-5.949219-1.785156-12.183594-4.957031-17.265625zm0 0" fill="#5b5d6d"/><path d="m24.667969 442.722656c-.332031-18.289062.222656-37.265625 1.65625-56.402344l.183593-2.472656-2.453124.339844c-4.914063.679688-8.910157 4.53125-10.84375 7.621094-3.167969 5.082031-4.1875 11.316406-4.957032 17.265625-1.851562 14.46875-2.527344 29.207031-2.015625 43.804687.320313 9.140625 1.328125 18.558594 6.457031 25.523438 2.859376 3.890625 7.582032 6.722656 12.320313 7.394531.6875.101563 1.382813.148437 2.0625.148437 2.0625 0 3.957031-.445312 5.625-1.328124l1.953125-1.03125-1.222656-1.84375c-7.625-11.503907-8.523438-26.175782-8.765625-39.019532zm0 0" fill="#5b5d6d"/><path d="m167.132812 369.449219c-1.195312-.203125-2.40625-.414063-3.632812-.644531-27.226562-5.078126-54.878906-5.632813-82.179688-1.640626-8.519531 1.246094-17.3125 3.199219-23.894531 9.015626-12.550781 11.097656-10.933593 31.507812-1.550781 43.613281 8.0625 10.398437 21.164062 17.253906 38.933594 20.378906 7.585937 1.332031 15.574218 2 24.074218 2 9.695313 0 20.050782-.871094 31.222657-2.605469 14.199219-2.210937 34.132812-7.011718 43.257812-23.128906 5.359375-9.46875 5.386719-21.695312.070313-31.90625-6.023438-11.574219-16.332032-13.359375-26.300782-15.082031zm-104.875 45.394531c-6.996093-9.023438-8.507812-24.636719.515626-32.609375 5.246093-4.640625 12.925781-6.085937 19.714843-7.078125 5.847657-.855469 11.707031-1.496094 17.582031-1.917969-4.121093 19.347657-5.589843 39.136719-4.378906 58.882813-15.460937-2.800782-26.714844-8.609375-33.433594-17.277344zm37.515626 17.9375c-1.316407-20.058594.191406-40.171875 4.480468-59.808594 4.398438-.242187 8.800782-.363281 13.203125-.363281 8.859375 0 17.71875.5 26.550781 1.476563.019532.113281.039063.222656.078126.335937 6.136718 18.476563 6.675781 38.839844 1.59375 57.636719-17.207032 2.445312-32.292969 2.679687-45.90625.722656zm86.5625-20.320312c-5.519532 9.75-17.082032 15.773437-36.300782 18.925781 4.671875-18.574219 4.09375-38.511719-1.667968-56.777344 4.5625.585937 9.113281 1.289063 13.652343 2.132813 1.261719.238281 2.507813.453124 3.738281.664062 9.484376 1.640625 16.335938 2.824219 20.515626 10.855469 4.003906 7.695312 4.027343 17.191406.0625 24.199219zm0 0"/><path d="m80.449219 237.714844c-5.039063 4.519531-13.203125 13.761718-11.269531 24.886718 1.601562 9.234376 9.949218 16.714844 22.898437 20.523438 9.578125 2.816406 19.582031 4.207031 29.550781 4.207031 13.949219 0 27.824219-2.734375 40.3125-8.125 6.074219-2.621093 13.53125-6.582031 17.335938-13.980469 4.402344-8.558593 2.335937-20.183593-5.023438-28.269531-5.539062-6.085937-13.535156-10.3125-24.445312-12.925781-27.136719-6.496094-52.414063-1.507812-69.359375 13.683594zm5.390625 6.015625c10.566406-9.476563 24.976562-14.410157 41.179687-14.410157 6.710938 0 13.726563.847657 20.90625 2.566407 9.28125 2.222656 15.941407 5.660156 20.355469 10.507812 4.335938 4.765625 7.042969 12.867188 3.816406 19.140625-2.632812 5.117188-8.523437 8.167969-13.355468 10.257813-19.710938 8.511719-43.179688 9.816406-64.386719 3.582031-4.679688-1.375-15.722657-5.503906-17.222657-14.15625-1.3125-7.5625 5.652344-14.75 8.707032-17.488281zm0 0"/><path d="m441.234375 480.34375c-6.304687-10.722656-14.933594-25.410156-29.425781-31.382812-8.109375-3.34375-16.972656-3.503907-24.792969-3.644532l-13.035156-.234375c1.503906-14.398437 1.730469-29 .644531-43.433593-.4375-5.875-1.285156-12.5625-5.773438-17.585938-1.09375-1.226562-2.3125-2.234375-3.609374-3.070312 1.035156-30.859376 2.082031-80.09375 3.097656-127.730469 1.019531-47.925781 2.074218-97.484375 3.113281-128.253907.035156-1.085937.085937-2.183593.136719-3.277343.351562-7.71875.714844-15.699219-3.03125-23.328125-1.707032-3.476563-4.03125-6.566406-6.769532-9.101563.023438-.132812.058594-.257812.070313-.390625 1.4375-19.296875 2.164063-36.632812-3.539063-53.320312-5.625-16.457032-20.28125-33.808594-40.347656-35.46875-16.351562-1.34375-33.621094 8.503906-43.960937 25.105468-9.1875 14.746094-12.351563 32.492188-14.597657 47.96875-8.332031 57.417969-9.375 115.773438-3.097656 173.453126l.019532.171874c.640624 5.890626 1.304687 11.980469-.597657 17.039063-1.582031 4.195313-6.007812 7.980469-10.074219 6.941406-2.597656-.667969-4.941406-3.367187-5.96875-6.875-1.046874-3.578125-.894531-7.558593-.730468-11.773437l.019531-.546875c1.429687-37.609375-2.363281-75.21875-11.273437-111.789063-4.21875-17.3125-10.644532-36.460937-26.324219-47.230468-13.574219-9.324219-32.914063-10.433594-49.277344-2.832032-14.222656 6.605469-26.257813 19.304688-33.886719 35.757813-6.867187 14.808593-8.917968 33.363281-10.015625 49.578125-.277343.285156-.5625.558594-.824219.859375-6.183593 6.988281-9.214843 17.042969-8.464843 27.855469-.417969.117187-.851563.222656-1.261719.34375-11.640625 3.492187-22.058594 9.773437-30.136719 18.164062-16.097656 16.730469-22.496093 39.953125-27.226562 60.40625-7.4375 32.152344-12.53125 64.019531-15.289063 95.300781-7.257812.230469-13.589844 5.210938-16.9375 10.570313-3.835937 6.144531-5.023437 13.402344-5.832031 19.71875-1.894531 14.804687-2.589844 29.875-2.0625 44.789062.355469 10.113282 1.527344 20.613282 7.632813 28.910156 3.855468 5.238282 9.972656 8.90625 16.359374 9.808594.984376.136719 1.957032.207032 2.917969.207032 3.617188 0 7.019531-.984376 9.871094-2.855469 9.765625 9.617187 23.769531 13.492187 36.414063 15.976562 23.371093 4.59375 48.875 6.855469 77.535156 6.855469 5.945312 0 12.03125-.097656 18.257812-.289062 13.609375-.425782 29.082032-1.65625 40.503906-10.964844 3.695313-3.007813 6.621094-6.574219 8.949219-10.480469 2.402344 1.148437 5.085938 1.757813 7.90625 1.757813.960938 0 1.933594-.070313 2.917969-.207032 6.390625-.90625 12.503906-4.570312 16.359375-9.808594 6.105469-8.300781 7.277344-18.800781 7.632813-28.910156.527343-14.914062-.167969-29.984375-2.0625-44.789062-.808594-6.320313-1.996094-13.574219-5.832032-19.71875-3.777344-6.046875-11.351562-11.621094-19.761718-10.429688-.316407.042969-.609376.132813-.894532.242188-3.972656-35.285156-10.996094-70.027344-17.886718-104.089844-.605469-3-1.132813-6.136719-1.6875-9.457031-1.925782-11.527344-4.109376-24.589844-10.644532-34.546875-7.597656-11.574219-20.34375-20.453125-35.886718-25-1.933594-.566406-3.90625-1.066406-5.886719-1.53125.550781-7.445313.007812-13.429688-1.730469-18.761719-2.132812-6.535156-6.234375-11.957031-11.390625-15.144531 2.472656-14.988282 6.898437-25.496094 13.886719-32.953125 9.878906-10.546875 23.640625-11.757813 31.570312-7.539063 11.648438 6.1875 14.960938 21.71875 16.808594 37.578125l11.476562 98.632813c1.078126 9.257812 2.300782 19.75 6.84375 29.035156 5.296876 10.816406 14.800782 18.140625 24.804688 19.117188.773438.074218 1.546875.109374 2.320312.109374 9.679688 0 19.6875-5.746093 26.023438-15.117187 5.996094-8.871094 8.300781-19.285156 9.894531-29.214844 5.058594-31.496093 4.183594-63.917969 3.339844-95.273437-.976563-36.167969-1.988281-73.570313 6.289063-108.992188 1.453124-6.21875 3.285156-12.695312 6.839843-17.898437 3.605469-5.285157 8.789063-8.617188 13.867188-8.90625 8.996093-.519531 16.539062 8.511719 18.359375 17.167969 2.070312 9.835937-.546875 21.785156-3.378906 32.175781-.003907.003906 0 .011719-.003907.015625-5.082031 4.402344-9.636719 12.324218-9.089843 32.328125.871093 31.5625 1.753906 81.929687 2.605468 130.636719.855469 48.726562 1.738282 99.113281 2.605469 130.71875.015625.515624.136719 1.007812.332031 1.457031-1.375.925781-2.652344 2.027343-3.78125 3.371093-5.023437 5.972657-5.019531 14.320313-5.019531 19.847657l.015625 37.882812c-9.933594-.171875-21.078125-.238281-31.121094 4.378907-7.898437 3.632812-14.835937 10.070312-21.214844 19.683593-.375.566407-.921874 1.320313-1.5625 2.214844-5.179687 7.191406-13.84375 19.230469-6.21875 24.933594.914063.683593 1.890626 1.160156 2.878907 1.523437-.515625 1.042969-.742188 2.25-.644531 3.53125.1875 2.53125 1.585937 5.015625 3.648437 6.480469 2.828125 2.007813 6.347656 2.390625 9.253906 2.515625.132813.027344.265625.042969.402344.042969.074219 0 .152344-.003907.226563-.011719.007812-.003906.015624-.003906.027343-.007812.261719.011718.527344.019531.773438.027343 30.855469.898438 61.976562 1.351563 93.046875 1.351563 19.832031 0 39.644531-.183594 59.34375-.554688 2.9375-.054687 6.597656-.121094 9.734375-1.878906 2.785156-1.554688 4.738281-4.417969 5.359375-7.847656.449218-2.480469.128906-4.921875-.855469-7.003906 1.300781-.746094 2.496094-1.851563 3.25-3.511719 1.8125-3.988281-.488281-7.902344-1.46875-9.574219zm-111.210937-245.015625c4.453124-2.4375 9.585937-3.628906 14.648437-3.382813 5.648437.289063 11.210937 2.378907 15.648437 5.886719.085938.070313.179688.117188.269532.175781-.054688 2.425782-.105469 4.847657-.15625 7.269532-9.691406-3.695313-20.597656-3.625-30.230469.109375-.058594-3.351563-.121094-6.707031-.179687-10.058594zm19.785156-152.679687c-3.859375-.976563-7.761719-.949219-11.476563.027343.675781-2.902343 1.269531-5.871093 1.71875-8.855469 3.042969-1.5625 7.566407-3.117187 12.121094-1.902343.871094.234375 1.71875.578125 2.523437 1-.121093 3.667969-.332031 7.410156-.59375 11.238281-1.390624-.628906-2.824218-1.136719-4.292968-1.507812zm-20.515625-46.597657c1.222656-3.082031 2.640625-6.074219 4.699219-8.574219 1.832031-2.230468 4.71875-4.4375 7.976562-5.027343 2.453125 3.03125 4.535156 6.34375 6.203125 9.734375-5.660156.808594-11.039063 3.699218-14.839844 7.96875-1.21875-1.496094-2.570312-2.875-4.039062-4.101563zm20.589843-.003906c.28125.71875.550782 1.4375.796876 2.152344 1.347656 3.945312 2.292968 7.972656 2.9375 12.09375-4.761719-.339844-9.640626.863281-13.691407 3.386719-.773437-3.496094-2.207031-6.976563-4.183593-10.148438 3.421874-4.257812 8.679687-7.050781 14.140624-7.484375zm-9.253906 22.039063c3.785156-2.929688 8.773438-4.273438 13.527344-3.699219.5 4.59375.679688 9.300781.636719 14.144531-.515625-.195312-1.042969-.367188-1.578125-.511719-3.886719-1.039062-8.238282-.636719-12.597656 1.105469.339843-3.726562.390624-7.4375.011718-11.039062zm-1.640625-38.992188c-2.988281 1.046875-5.839843 3.046875-8.117187 5.816406-2.167969 2.632813-3.695313 5.6875-4.953125 8.722656-2.152344-1.292968-4.488281-2.253906-6.957031-2.789062-1.0625-3.554688-1.113282-7.4375-.0625-10.980469 1.136718-3.84375 3.558593-7.328125 6.746093-9.777343 5.050781 1.929687 9.539063 5.117187 13.34375 9.007812zm-45.800781 23.707031c-.253906.375-.476562.761719-.714844 1.144531-4.398437-3.734374-9.746094-6.296874-15.421875-7.363281 1.128907-2.425781 2.386719-4.796875 3.8125-7.085937.792969-1.273438 1.644531-2.480469 2.519531-3.652344 5.753907 2.449219 10.601563 7.011719 13.355469 12.628906-1.28125 1.3125-2.476562 2.753906-3.550781 4.328125zm-7.066406 16.75c-4.542969-2.925781-9.996094-4.304687-15.390625-3.867187 1.195312-5.210938 2.6875-10.351563 4.667969-15.285156 5.578124.855468 10.847656 3.367187 15.042968 7.125-1.921875 3.867187-3.25 7.960937-4.320312 12.027343zm-10.472656 207.136719c-.65625-.925781-1.398438-1.789062-2.246094-2.558594-2.378906-2.160156-5.394532-3.535156-8.574219-3.945312.296875-2.582032.28125-5.171875.132813-7.707032 4.191406-.988281 8.894531.113282 12.183593 2.890626-.417969 3.792968-.917969 7.5625-1.496093 11.320312zm-8.253907-192.277344c5.175781-.027344 10.324219 1.347656 14.808594 3.945313-.679687 4.09375-1.265625 8.195312-1.753906 12.3125-4.285157-2.984375-9.523438-4.398438-14.703125-4.039063.519531-4.078125 1.058594-8.148437 1.648437-12.21875zm-6.242187 64.789063c5.535156-1.335938 11.34375-1.296875 16.859375.117187.007812 4.316406.054687 8.628906.125 12.929688-5.582031-2.003906-11.789063-2.167969-17.46875-.460938.128906-4.195312.28125-8.394531.484375-12.585937zm4.097656-48.460938c4.730469-.511719 9.707031.800781 13.484375 3.664063.367187.273437.792969.40625 1.21875.40625.019531 0 .035156-.003906.054687-.003906-.378906 3.640624-.707031 7.285156-.960937 10.9375-4.425781-2.886719-9.753906-4.3125-15.03125-4 .382813-3.671876.792969-7.339844 1.234375-11.003907zm-1.660156 15.089844c5.417968-.503906 10.96875 1.199219 15.152344 4.703125-.191407 3.386719-.339844 6.773438-.453126 10.164062-5.058593-1.78125-10.507812-2.4375-15.839843-1.867187.339843-4.335937.714843-8.667969 1.140625-13zm-3.230469 66.136719c5.910156-1.992188 12.644531-1.585938 18.261719 1.125.011718.457031.023437.917968.035156 1.375.082031 3.019531.164062 6.050781.238281 9.089844-5.847656-2.335938-12.390625-2.707032-18.457031-1.070313-.054688-3.507813-.078125-7.011719-.078125-10.519531zm.023437-4.230469c.023438-3.886719.085938-7.773437.175782-11.660156 5.675781-2.082031 12.125-1.890625 17.660156.542969.082031 4.019531.179688 8.03125.28125 12.03125-5.714844-2.246094-12.203125-2.574219-18.117188-.914063zm.144532 18.925781c6.046875-1.898437 12.75-1.441406 18.476562 1.34375.101563 4.523438.1875 9.058594.242188 13.605469-2.839844-2.15625-6.214844-3.570313-9.769532-4.039063-2.890624-.378906-5.832031-.121093-8.601562.714844-.148438-3.875-.265625-7.75-.347656-11.625zm1.621094-63.710937c5.398437-.707031 10.960937-.015625 16.015624 2-.078124 3.40625-.121093 6.8125-.136718 10.21875-5.464844-1.25-11.160156-1.308594-16.644532-.164063.21875-4.019531.476563-8.039062.765626-12.054687zm2.476562 125.46875c-.085938-.835938-.171875-1.660157-.261719-2.472657l-.019531-.171874c-.4375-4.035157-.832031-8.078126-1.199219-12.121094 2.152344-.476563 4.679688-.226563 7.253907.75 2.871093 1.085937 5.542968 2.90625 8.128906 4.683594-.234375 3.898437-.53125 7.785156-.898438 11.660156-3.847656-2.367188-8.558594-3.222656-13.003906-2.328125zm14.148438-14.042969c-2.160157-1.433594-4.421876-2.792969-6.945313-3.75-3.109375-1.179688-6.230469-1.511719-9.027344-1.015625-.273437-3.226563-.523437-6.453125-.75-9.683594 5.527344-2.0625 11.917969-1.617187 17.160157 1.066407-.082032 4.46875-.226563 8.929687-.4375 13.382812zm-17.011719-18.625c-.28125-4.417969-.53125-8.835938-.730469-13.257812 2.515625-.9375 5.246094-1.265626 7.921875-.917969 3.671875.480469 7.117187 2.210937 9.699219 4.867187.1875.195313.402344.339844.636718.441406.015626 3.230469.011719 6.464844-.019531 9.699219-5.503906-2.285156-11.828125-2.628906-17.507812-.832031zm21.1875-141.597656c-4.609375-2.402344-9.761719-3.6875-14.953125-3.757813.539062-3.507812 1.128906-7.035156 1.832031-10.546875 5.300781-.753906 10.953125.707032 15.253906 3.898438-.800781 3.457031-1.496093 6.925781-2.132812 10.40625zm-61.421875 190.503906-.367188-3.132812c1.179688-1.292969 2.640625-2.324219 4.273438-2.976563 1.699218-.675781 3.546875-.929687 5.359375-.765625.058593 2.78125.332031 5.59375 1.152343 8.410156.113282.382813.238282.761719.371094 1.136719-3.785156 2.453125-6.894531 5.882813-9.035156 9.835937-.777344-4.128906-1.269531-8.351562-1.753906-12.507812zm-3.777344-130.917969c-5.074219.324219-9.976562 2.398438-13.75 5.804688-1.25-2.9375-2.746094-5.675781-4.554688-8.152344 2.84375-5.179687 8.261719-8.976563 14.121094-9.714844 1.640625 3.914063 3.003906 7.984375 4.183594 12.0625zm12.308594 72.378907c-2.566406-.863282-5.554688-.953126-8.492188-.148438-2.382812.65625-4.546875 1.78125-6.515625 3.039062l-1.300781-11.167968c2.210938-1.589844 4.839844-2.621094 7.539062-2.894532 2.679688-.273437 5.4375.191407 7.910157 1.277344.332031 3.292969.609375 6.59375.859375 9.894532zm-14.484375 7.40625c2.132812-1.515626 4.507812-2.960938 7.0625-3.660157 2.289062-.628906 5.398437-.679687 7.75.839844.242187 3.804687.425781 7.617187.5625 11.429687-3.082031-.550781-6.148438 0-8.4375.683594-1.953125.589844-3.808594 1.378906-5.605469 2.164063zm-5.527344-47.5c-.234375-2.015626-.496094-4.027344-.789063-6.023438 1.777344-1.703125 4.09375-2.863281 6.523438-3.167969 2.707031-.339843 5.539062.378907 7.820312 1.894531.675782 3.410157 1.320313 6.824219 1.902344 10.25-2.4375-.617187-5.195312-.539062-7.898437.324219-2.496094.792969-4.722657 2.109375-6.761719 3.566407zm5.234375-13.199219c-2.414062.304687-4.746094 1.234375-6.773438 2.613281-.742187-4.082031-1.6875-8.046875-2.945312-11.777344 3.375-3.621094 8.34375-5.824218 13.289062-5.921875.351563 1.335938.695313 2.671875 1.015626 3.992188.96875 3.984375 1.867187 7.984375 2.714843 11.992187-2.328125-.863281-4.851562-1.207031-7.300781-.898437zm-3.898438 24.679687c2.3125-1.820312 4.738282-3.496094 7.445313-4.355468 2.285156-.726563 5.195313-.769532 7.421875.414062.960938 6.046875 1.78125 12.109375 2.460938 18.1875-2.527344-.785156-5.210938-1.089844-7.832032-.824219-2.679687.277344-5.292968 1.148438-7.648437 2.476563zm6.011719 51.660156c.25-.109374.507813-.21875.757813-.324218 1.886718-.824219 3.664062-1.597656 5.523437-2.15625 2.035157-.613282 4.832031-1.09375 7.394531-.375.105469 4.210937.144532 8.421875.117188 12.632812-4.191406-.78125-8.605469-.1875-12.464844 1.609375zm1.824219 15.679688c3.558594-2.019531 7.941406-2.6875 11.917969-1.773438-.046875 2.742188-.113281 5.484376-.21875 8.226563l-.019531.539063c-.027344.632812-.050782 1.269531-.070313 1.902343-2.335937-.160156-4.707031.1875-6.890625 1.058594-1.191406.476563-2.3125 1.097656-3.34375 1.84375zm-63.707031-147.769531c2.582031-1.199219 5.25-2.144531 7.953125-2.839844 3.371094 8.054687 5.464844 16.523437 6.222656 25.226563-2.355469.378906-4.738281 1.003906-7.101562 1.898437-1.433594-8.320313-6.34375-16.039063-13.292969-20.832031 2.015625-1.300782 4.085937-2.460938 6.21875-3.453125zm-15.269531 44.8125c-1.929688-2.253907-4.328126-4.101563-7.0625-5.328125-3.15625-1.414063-6.628907-1.964844-10.039063-1.664063.726563-2.0625 1.519531-4.066406 2.410156-5.988281 1.628907-3.515625 3.480469-6.828125 5.519531-9.925781 3.066407.378906 6.039063 1.503906 8.550782 3.316406 3.457031 2.492187 5.964844 6.214844 7.035156 10.332031-2.417969 2.761719-4.546875 5.835938-6.414062 9.257813zm-23.480469 27.195312c.351562-4.121093.796875-8.328125 1.390625-12.519531 2.421875-.714844 4.992187-.910156 7.507812-.523438 2.910156.449219 5.667969 1.660157 7.980469 3.460938-.585937 2.378906-1.117187 4.859375-1.582031 7.476562-5.015625-.871093-10.410156-.097656-15.296875 2.105469zm18-13.738281c-2.550781-1.683594-5.449219-2.828125-8.488281-3.296875-2.480469-.382813-5.007813-.300781-7.449219.195313.753906-4.46875 1.714843-8.867188 2.941406-13.070313 3.265625-.632813 6.753906-.277344 9.761719 1.070313 2.6875 1.203124 5.027344 3.226562 6.710937 5.671874-1.3125 2.90625-2.472656 6.039063-3.476562 9.429688zm-109.46875 328.476562c-4.21875-.597656-8.429688-3.125-10.984375-6.597656-4.808594-6.535156-5.757813-15.59375-6.070313-24.410156-.507812-14.480469.164063-29.109375 2.003907-43.480469.734374-5.71875 1.699218-11.707031 4.671874-16.464843 1.929688-3.09375 5.503907-6.15625 9.417969-6.699219-1.4375 19.117187-2.003906 38.003906-1.660156 56.585937.246094 13.308594 1.242187 28.25 9.09375 40.097656-2.273437 1.195313-4.707031 1.214844-6.472656.96875zm143.613281 19.816407c-35.625 1.109375-66.367188-.988281-93.984375-6.417969-7.296875-1.433594-15.0625-3.351562-21.886719-6.660156-.898437-5.96875-1.824218-12.136719-1.199218-18.140625.667968-6.414063 3.21875-11.832031 6.996093-14.863281 4.824219-3.875 11.46875-4.101563 18.433594-3.992188 33.769531.523438 67.953125 2.378906 101.597656 5.515625 5.707031.53125 11.539063 1.414063 14.679688 5.722656 2.582031 3.542969 2.753906 8.6875 2.707031 14.089844l-.167969 20.476563c-8.347656 3.339843-18.191406 3.992187-27.175781 4.269531zm57.992188-117.480469c4.796874-.675781 9.472656 3.003906 11.789062 6.710938 2.972656 4.761718 3.933594 10.746093 4.667969 16.46875 1.839843 14.371093 2.515625 29 2.003906 43.476562-.308594 8.816406-1.261719 17.878906-6.066406 24.410156-2.558594 3.472656-6.765625 6-10.988281 6.597656-1.683594.238282-3.972657.226563-6.152344-.808593 3.863281-9.789063 5.035156-20.761719 5.519531-30.367188 1.125-22.355469.203125-44.535156-1.976563-66.515625.390626.058594.792969.085938 1.203126.027344zm-7.292969 66.082031c-.730469 14.558594-3.101563 32.519531-15.042969 42.246094-1.382812 1.128906-2.871094 2.101563-4.425781 2.960937l.152343-18.519531c.050782-6.105469-.175781-11.960937-3.480468-16.503906-4.128906-5.667969-11.234375-6.773437-17.570313-7.363281-33.746093-3.148438-68.035156-5.007813-101.910156-5.53125-7.726563-.121094-15.148437.164062-21.023437 4.878906-4.609376 3.703125-7.703126 10.117188-8.484376 17.59375-.566406 5.453125.019532 10.839844.773438 16.097656-2.96875-1.871094-5.667969-4.085937-7.929688-6.765625-8.679687-10.292969-9.671874-25.386719-9.917968-38.726562-.65625-35.574219 2.023437-72.28125 7.960937-109.617188 26.332031 12.25 55.535157 18.390625 84.746094 18.390625 29.851563 0 59.703125-6.417968 86.480469-19.226562 6.898437 39.4375 11.707031 79.589844 9.671875 120.085937zm-130.308594-111.867187c.050781-5.398438 4.519531-9.984375 8.925781-12.078125 5.574219-2.648438 12.304688-2.863281 18.242188-3.054688l24.328125-.785156c4.742187-.152344 8.921875-.101563 12.007812 2.074219 3.957031 2.78125 4.902344 8.191406 4.910157 13.816406-22.554688 3.945312-45.859376 3.953125-68.414063.027344zm98.609375-105.628906c5.605469 8.535156 7.550781 20.179687 9.433594 31.441406.566406 3.390625 1.101562 6.59375 1.734375 9.730468 3.210937 15.875 6.453125 31.898438 9.394531 48.046876-.15625.054687-.3125.097656-.464844.171874-14.621094 7.167969-30.226562 12.324219-46.265625 15.476563-.101562-6.457031-1.441406-12.742187-6.613281-16.386719-4.445312-3.128906-10.234375-2.941406-14.464844-2.804687l-24.328125.785156c-6.332031.203125-13.507812.433594-19.84375 3.445313-5.363281 2.546874-10.769531 8.167968-11.1875 14.988281-15.664062-3.066407-30.90625-8.054688-45.234375-14.941407 2.285156-13.320312 4.984375-26.714843 8.09375-40.160156 4.488282-19.402344 10.503906-41.375 25.179688-56.625 7.113281-7.394531 16.324218-12.9375 26.636718-16.03125 15.738282-4.71875 37.925782-4.257812 56.527344 1.179688 13.703125 4.007812 24.855469 11.707031 31.402344 21.683594zm-43.011719-32.554688c-12.953125-2.128906-26.296875-2.203125-37.984375-.179688-.308594-8.171874 1.996094-15.597656 6.519532-20.710937 5.441406-6.152344 14.726562-8.390625 21.140624-5.101563 3.980469 2.042969 7.226563 6.171876 8.90625 11.324219 1.328126 4.074219 1.777344 8.777344 1.417969 14.667969zm4.945313-72.855469c-1.554688-4.097656-4.292969-7.738281-7.855469-10.308593-2.492187-1.796876-5.351563-3.03125-8.34375-3.691407 3.589844-4.773437 7.660156-8.914062 12.09375-12.300781 7.035156 4.257812 11.957031 11.875 13.023437 20.023438-3.089843 1.582031-6.101562 3.65625-8.917968 6.277343zm23.863281-10.28125c-.777344-8.835937-2.859375-17.441406-6.207031-25.640625 4.898437-.804687 9.828125-.808594 14.527344-.007812-3.742188 7.785156-5.523438 16.597656-5.054688 25.199218.011719.164063.042969.316407.089844.464844-1.101563-.0625-2.222656-.0625-3.355469-.015625zm7.035156.433594c.183594-.324219.285157-.703125.261719-1.105469-.449219-8.238281 1.351562-16.683594 5.082031-24.0625 3.863281 1.074219 7.507813 2.707032 10.734375 4.921875.660156.457031 1.289063.945313 1.910156 1.4375-6.75 4.625-11.351562 12.238281-12.425781 20.339844-1.742187-.675781-3.605469-1.191406-5.5625-1.53125zm9.425781 3.414063c.578126-7.792969 4.980469-15.253907 11.613282-19.414063.027344-.019531.046875-.042969.074218-.058594 4.144532 4.070313 7.394532 9.03125 10.007813 14.4375-6.132813 1.144531-11.75 5-15.148437 10.246094-1.894532-1.992187-4.058594-3.746094-6.546876-5.210937zm37.4375 168.175781c-1.121093-2.289063-2.003906-4.6875-2.730468-7.152344 1.421875-5.203125 4.726562-9.859375 9.183594-12.902344 1.285156 2.148438 2.921874 3.964844 4.800781 5.320313-3.546875 6.527344-5.996094 13.632812-7.234375 20.957031-1.648438-1.996094-3.003906-4.148437-4.019532-6.222656zm7.570313 9.816406c.960937-7.921875 3.433594-15.648437 7.246094-22.660156.410156.148437.820312.285156 1.242187.390625 1.164063.300781 2.316406.441406 3.449219.441406.210937 0 .414063-.023438.621094-.03125 2.148437 8.734375 2.136719 18.007812-.03125 26.738281-.589844.007813-1.179688-.007812-1.761719-.066406-4.121094-.402344-7.746094-2.269531-10.765625-4.8125zm16.804687 4.3125c1.941407-8.839844 1.851563-18.128906-.277343-26.925781 2.140625-.71875 4.121093-1.902344 5.855469-3.402344 5.660156 5.753906 8.414062 14.457031 6.886718 22.378906-3.546875 4.019532-7.957031 6.8125-12.464844 7.949219zm16.871094-14.410156c-.472656-7.035157-3.503906-13.855469-8.511718-18.855469 1.25-1.609375 2.261718-3.390625 2.960937-5.234375.3125-.839844.578125-1.6875.800781-2.539063 2.441406.265626 4.769532 1.296876 6.59375 2.957032 1.941406 1.761718 3.246094 4.15625 3.671875 6.742187.007813.039063.023438.078125.03125.117188-1.164062 5.835937-2.796875 11.632812-5.546875 16.8125zm31.003906-255.109375c-3.066406-5.675782-8.011718-10.328125-13.84375-13.09375 3.378907-3.828125 7.203126-7.007813 11.269532-9.402344 4.925781 5.066406 7.960937 12.058594 8.261718 19.105469-1.980468.867187-3.894531 2.003906-5.6875 3.390625zm13.414063-5.296875c-1.257813.070312-2.511719.269531-3.757813.570312-.582031-7.21875-3.648437-14.300781-8.496093-19.691406 5.296875-2.414063 10.867187-3.546875 16.292969-3.097656 1.289062.105469 2.542968.304687 3.777343.566406-2.804687 2.761719-4.941406 6.226563-6.054687 9.984375-1.109375 3.746094-1.203125 7.804688-.355469 11.636719-.464844 0-.933594.003906-1.40625.03125zm22.015625 62.515625c4.796875-3.414063 9.46875-3.203125 12.542969-2.425782 5.527343 1.398438 10.695312 5.800782 13.488281 11.484376 2.832031 5.773437 2.53125 12.390624 2.210938 19.398437-.050782 1.132813-.101563 2.257813-.140626 3.375-.863281 25.550781-1.734374 64-2.589843 103.726563-4.796875-2.703126-10.21875-4.300782-15.714844-4.578126-5.171875-.265624-10.398437.664063-15.210937 2.609376-.71875-40.6875-1.457032-80.183594-2.179688-106.578126-.300781-11.007812.40625-21.898437 7.59375-27.011718zm-4.988281 157.730468c-.003907-.304687-.011719-.605468-.015625-.90625 9.382812-4.082031 20.296875-4.230468 29.78125-.269531.09375.039063.1875.0625.285156.085938-.027344 1.183593-.050781 2.367187-.078125 3.546875-.984375 46.203125-2 93.914062-3 124.851562-5.925781-1.121094-12.007813-.359375-15.742187.105469-2.914063.367187-5.859376.808594-8.671876 1.558594-.851562-31.648438-1.71875-81.105469-2.558593-128.972657zm-2.738281 140.882813c3.105468-3.691406 8.855468-4.6875 14.976562-5.457031 8.070312-1.011719 16.113281-1.300782 20.296875 3.382812 2.808594 3.140625 3.40625 8.257813 3.746094 12.8125 1.066406 14.183594.828125 28.539063-.691407 42.683594l-41.4375-.742188-.015624-38.03125c0-5.757812.234374-11.210937 3.125-14.648437zm-58.53125 83.527344c.714843-.992188 1.324218-1.835938 1.742187-2.46875 5.523437-8.324219 11.363281-13.820313 17.855469-16.808594 8.664062-3.980469 19.1875-3.792969 28.472656-3.625l69.777344 1.25c7.453125.136719 15.160156.273437 21.859375 3.035156 11.082031 4.566407 18.125 15.386719 25.542969 28.007813.675781 1.152344.914062 1.761718.992187 2.074218-.308594.136719-1 .347657-2.484375.488282-55.324219 5.179687-111.496094 6.125-166.957031 2.800781-1.867188-.113281-3.5-.253906-4.5-.84375-.097657-1.386719 1.25-4.949219 7.699219-13.910156zm153.003906 31.128906c-2.785156.050781-5.574219.089844-8.363282.132813l-.023437-9.609376c3.117187-.234374 6.234375-.472656 9.347656-.734374zm-45.25-7.324219c2.726562-.113281 5.453125-.230468 8.179687-.363281l.21875 8.128906c-2.878906.015625-5.757812.019531-8.640625.03125v-.003906zm12.210937-.574218c3.117188-.164063 6.234375-.339844 9.347657-.527344l.035156 8.75c-3.050782.03125-6.101563.066406-9.15625.089844zm13.382813-.789063c2.414062-.15625 4.824218-.308594 7.230468-.480469l.027344 9.363282c-2.40625.035156-4.8125.0625-7.21875.089843zm-96.644532 8.613281-.921874-6.597656c2.449218.058594 4.898437.105469 7.351562.148438l.398438 6.578124c-2.277344-.035156-4.554688-.085937-6.828126-.128906zm-21.058593-.464844c-.164063-.101562-.339844-.183593-.527344-.238281l-.714844-6.609375c2.480469.105469 4.960938.207032 7.445313.300782l.191406 6.714843c-2.132812-.050781-4.261719-.113281-6.394531-.167969zm-11.0625-.289062-.789063-7.066406c2.175782.113281 4.351563.21875 6.527344.324218l.75 6.910157c-2.160156-.058594-4.328125-.105469-6.488281-.167969zm21.308593-6.125c1.933594.0625 3.863282.121094 5.796876.175781l.925781 6.621094c-2.175781-.042969-4.355469-.082031-6.53125-.128906zm21.289063.492188c3.058594.042968 6.121094.070312 9.183594.085937l-.316407 6.609375c-2.824218-.035156-5.644531-.078125-8.46875-.121094zm13.226563.097656c.503906 0 1.007812.007812 1.511718.007812 1.597656 0 3.199219-.023437 4.800782-.027344l1.332031 6.742188c-2.652344-.023438-5.308594-.039062-7.964844-.070312zm11.617187 5.984375-1.195313-6.03125c3.035157-.023438 6.066407-.0625 9.097657-.109375l1.011719 6.980468c-2.972657-.015624-5.945313-.046874-8.914063-.066406.046875-.25.050781-.511718 0-.773437zm12.941406.484375-.96875-6.699219c2.402344-.046875 4.800781-.101563 7.199219-.164063l.566406 7.242188c-2.261718-.003906-4.519531-.003906-6.78125-.015625.003906-.117187.003906-.242187-.015625-.363281zm-91.472656-6.261719c-.046875-.585937.03125-1.414063.648437-2.007813.097657-.089843.179688-.191406.253907-.296874.691406.070312 1.347656.113281 1.925781.148437 1.125.066406 2.257812.125 3.382812.1875l.792969 7.074219c-1.949219-.210938-3.667969-.640625-5.042969-1.617188-1.078124-.761718-1.863281-2.164062-1.960937-3.488281zm102.296875 6.652344c.003906-.070313.011719-.140625.003906-.210938l-.554687-7.164062c2.824219-.082031 5.648437-.175781 8.472656-.28125l-.234375 7.503906c0 .050781.007812.09375.011719.140625-2.566407.007812-5.132813.011719-7.699219.011719zm71.519531-6.953125c-.398437 2.207031-1.652343 4.089844-3.355469 5.042968-1.988281 1.113282-4.523437 1.289063-6.886718 1.347657l.988281-10.503907c2.152344-.1875 4.304687-.363281 6.457031-.566406.503906-.046875 1.230469-.117187 2.058594-.269531.777344 1.402344 1.058594 3.171875.738281 4.949219zm0 0"/><path d="m82.230469 400.488281-10.144531-1.195312c-1.109376-.128907-2.109376.660156-2.238282 1.769531-.132812 1.105469.660156 2.109375 1.765625 2.238281l10.148438 1.195313c.078125.011718.160156.015625.238281.015625 1.007812 0 1.878906-.757813 2-1.78125.132812-1.109375-.660156-2.113281-1.769531-2.242188zm0 0"/><path d="m177.515625 399.292969-10.144531 1.195312c-1.105469.132813-1.898438 1.132813-1.769532 2.242188.121094 1.027343.992188 1.78125 2.003907 1.78125.078125 0 .15625-.003907.238281-.011719l10.144531-1.195312c1.105469-.132813 1.898438-1.136719 1.769531-2.242188-.132812-1.109375-1.136718-1.898438-2.242187-1.769531zm0 0"/><path d="m121.277344 392.257812c-4.570313 1-7.78125 4.574219-8.179688 9.113282-.378906 4.328125 2.238282 8.722656 6.222656 10.453125 1.269532.550781 2.644532.8125 4.019532.8125 2.9375 0 5.886718-1.207031 7.863281-3.410157 2.902344-3.230468 3.445313-8.316406 1.296875-12.09375-2.253906-3.960937-6.660156-5.871093-11.222656-4.875zm6.921875 14.273438c-1.746094 1.945312-4.875 2.628906-7.269531 1.585938-2.402344-1.039063-4.039063-3.789063-3.808594-6.394532.292968-3.324218 2.78125-5.03125 5.015625-5.519531.476562-.105469.980469-.164063 1.503906-.164063 1.929687 0 4.050781.804688 5.351563 3.089844 1.292968 2.273438.953124 5.453125-.792969 7.402344zm0 0"/><path d="m178.242188 464.183594c-35.566407 7.105468-73.011719 6.402344-108.289063-2.03125-1.085937-.253906-2.175781.410156-2.433594 1.496094-.257812 1.082031.410157 2.171874 1.492188 2.433593 19.5 4.660157 39.640625 6.996094 59.78125 6.996094 16.882812 0 33.761719-1.644531 50.238281-4.933594 1.09375-.21875 1.800781-1.28125 1.585938-2.375-.21875-1.09375-1.285157-1.800781-2.375-1.585937zm0 0"/><path d="m178.242188 475.601562c-35.566407 7.105469-73.015626 6.402344-108.289063-2.03125-1.085937-.253906-2.175781.414063-2.433594 1.496094-.257812 1.082032.410157 2.171875 1.492188 2.433594 19.496093 4.660156 39.640625 6.996094 59.78125 6.996094 16.882812 0 33.761719-1.644532 50.238281-4.933594 1.09375-.21875 1.804688-1.28125 1.585938-2.375s-1.285157-1.800781-2.375-1.585938zm0 0"/><path d="m178.242188 487.019531c-35.566407 7.105469-73.015626 6.402344-108.289063-2.03125-1.085937-.253906-2.175781.414063-2.433594 1.496094-.257812 1.082031.410157 2.171875 1.492188 2.433594 19.496093 4.660156 39.640625 6.996093 59.78125 6.996093 16.882812 0 33.761719-1.644531 50.238281-4.933593 1.09375-.21875 1.804688-1.28125 1.585938-2.375s-1.285157-1.800781-2.375-1.585938zm0 0"/><path d="m280.070312 485.652344 22.023438.289062c.785156.007813 1.570312.019532 2.363281.019532 2.886719 0 5.824219-.136719 8.738281-.910157 4.355469-1.160156 7.871094-3.71875 9.644532-7.023437 2.058594-3.835938 1.75-8.800782-.769532-12.355469-3.519531-4.957031-9.765624-5.1875-14.785156-5.371094-.933594-.035156-1.84375-.066406-2.707031-.128906-5.554687-.398437-13.683594-.402344-20.09375 4.148437-4.457031 3.164063-7.292969 7.925782-9.796875 12.128907-.660156 1.105469-2.207031 3.703125-1.027344 6.199219 1.386719 2.941406 5.035156 2.988281 6.410156 3.003906zm6.753907-18.039063c4.128906-2.933593 9.515625-3.984375 17.464843-3.414062.910157.0625 1.867188.101562 2.847657.136719 4.558593.167968 9.273437.339843 11.640625 3.675781.414062.582031.734375 1.234375.964844 1.921875l-36.058594.554687c.957031-1.074219 1.988281-2.058593 3.140625-2.875zm-8.667969 10.902344c.765625-1.285156 1.570312-2.625 2.4375-3.945313l39.421875-.601562c-.140625.753906-.375 1.484375-.734375 2.148438-1.246094 2.324218-3.84375 4.160156-7.125 5.03125-3.179688.84375-6.652344.800781-10.007812.753906l-22.027344-.285156c-2.257813-.03125-2.71875-.492188-2.808594-.691407-.175781-.367187.109375-1.179687.84375-2.410156zm0 0"/><path d="m345.589844 277.371094h.03125c1.117187-.019532 2.003906-.9375 1.988281-2.050782l-.320313-20.496093c-.015624-1.105469-.917968-1.988281-2.015624-1.988281-.011719 0-.023438 0-.035157 0-1.113281.019531-2.003906.9375-1.984375 2.050781l.320313 20.496093c.015625 1.105469.914062 1.988282 2.015625 1.988282zm0 0"/><path d="m335.625 129.863281c-.023438 2.289063-.054688 4.886719.710938 7.378907.929687 3.03125 2.996093 5.382812 5.523437 6.296874.875.3125 1.75.457032 2.613281.457032 2.90625 0 5.617188-1.617188 7.296875-3.582032 2.246094-2.628906 3.140625-5.914062 3.71875-8.78125 1.746094-8.667968 1.4375-17.761718-.898437-26.292968-1.410156-5.148438-4.542969-8.328125-8.375-8.503906-3.941406-.167969-7.546875 2.878906-9.464844 7.984374-2.042969 5.433594-1.671875 12.320313-1.347656 18.398438.125 2.375.246094 4.621094.222656 6.644531zm15.90625.972657c-.476562 2.359374-1.183594 5.03125-2.828125 6.953124-1.273437 1.492188-3.5625 2.636719-5.472656 1.949219-1.339844-.484375-2.472657-1.859375-3.03125-3.683593-.582031-1.890626-.558594-4.054688-.535157-6.144532.023438-2.15625-.097656-4.464844-.230468-6.910156-.011719-.238281-.023438-.484375-.039063-.726562 4.128907-1.730469 8.9375-1.8125 13.136719-.257813-.089844 2.960937-.417969 5.914063-1 8.820313zm-11.003906-24.597657c1.261718-3.359375 3.429687-5.453125 5.5-5.371093 1.996094.09375 3.742187 2.164062 4.667968 5.539062 1.011719 3.699219 1.597657 7.511719 1.789063 11.34375-4.3125-1.246094-9.015625-1.15625-13.265625.28125-.113281-4.226562.0625-8.46875 1.308594-11.792969zm0 0"/><path d="m58.664062 321.269531-11.011718-3.417969c-1.0625-.328124-2.195313.265626-2.523438 1.332032-.332031 1.0625.265625 2.195312 1.328125 2.523437l11.011719 3.417969c.199219.0625.398438.089844.597656.089844.863282 0 1.660156-.554688 1.925782-1.417969.332031-1.066406-.261719-2.199219-1.328126-2.527344zm0 0"/><path d="m190.375 326.042969c.261719 0 .523438-.050781.777344-.15625l9.433594-3.933594c1.027343-.429687 1.515624-1.613281 1.085937-2.640625s-1.609375-1.515625-2.640625-1.085938l-9.433594 3.933594c-1.027344.429688-1.515625 1.613282-1.085937 2.640625.324219.777344 1.074219 1.242188 1.863281 1.242188zm0 0"/></svg>