<svg height="512pt" viewBox="0 0 512 512.00078" width="512pt" xmlns="http://www.w3.org/2000/svg"><path d="m488.726562 302.546875h-349.089843c-1.535157-.003906-3.0625-.15625-4.566407-.457031-46.707031-9.339844-135.070312-52.886719-135.070312-150.816406 0-97.929688 88.363281-141.476563 135.070312-150.816407 12.605469-2.519531 24.863282 5.65625 27.382813 18.261719 2.515625 12.582031-5.625 24.828125-18.203125 27.375-4.339844.886719-97.703125 21.316406-97.703125 105.179688 0 78.203124 81.203125 101.25 95.65625 104.726562h346.523437c12.851563 0 23.273438 10.421875 23.273438 23.273438 0 12.851562-10.421875 23.273437-23.273438 23.273437zm0 0" fill="#1e2147"/><path d="m186.183594 279.273438c0 12.851562-10.421875 23.273437-23.273438 23.273437-12.855468 0-23.273437-10.421875-23.273437-23.273437 0-12.855469 10.417969-23.273438 23.273437-23.273438 12.851563 0 23.273438 10.417969 23.273438 23.273438zm0 0" fill="#080b36"/><path d="m139.636719 23.273438c0 12.851562-10.417969 23.273437-23.273438 23.273437-12.851562 0-23.273437-10.421875-23.273437-23.273437 0-12.851563 10.421875-23.273438 23.273437-23.273438 12.855469 0 23.273438 10.421875 23.273438 23.273438zm0 0" fill="#080b36"/><path d="m139.636719 0c12.851562 0 23.273437 10.421875 23.273437 23.273438v395.636718c0 12.851563-10.421875 23.273438-23.273437 23.273438-12.851563 0-23.273438-10.421875-23.273438-23.273438v-395.636718c0-12.851563 10.421875-23.273438 23.273438-23.273438zm0 0" fill="#7c7f95"/><path d="m162.910156 372.363281c0 12.855469-10.421875 23.273438-23.273437 23.273438-12.851563 0-23.273438-10.417969-23.273438-23.273438 0-12.851562 10.421875-23.273437 23.273438-23.273437 12.851562 0 23.273437 10.421875 23.273437 23.273437zm0 0" fill="#4c4f6e"/><path d="m372.363281 465.453125c0 25.707031-20.839843 46.546875-46.546875 46.546875-25.703125 0-46.542968-20.839844-46.542968-46.546875 0-25.703125 20.839843-46.542969 46.542968-46.542969 25.707032 0 46.546875 20.839844 46.546875 46.542969zm0 0" fill="#1e2147"/><path d="m418.910156 46.546875c25.703125 0 46.542969 20.839844 46.542969 46.542969v75.566406c0 8.386719 4.132813 16.683594 11.636719 20.433594 5.816406 2.910156 11.636718 8.730468 11.636718 20.367187s-5.820312 17.453125-11.636718 20.363281c-7.503906 3.75-11.636719 12.046876-11.636719 20.433594v34.765625c0 8.386719 4.132813 16.683594 11.636719 20.433594 5.816406 2.910156 11.636718 8.730469 11.636718 20.367187 0 11.632813-5.820312 17.453126-11.636718 20.363282-7.503906 3.75-11.636719 12.046875-11.636719 20.433594v52.292968c0 25.707032-20.839844 46.542969-46.542969 46.542969h-186.183594c-25.707031 0-46.542968-20.839844-46.542968-46.542969v-325.820312c0-25.703125 20.839844-46.542969 46.542968-46.542969zm0 0" fill="#0ac"/><path d="m372.363281 418.910156v-52.292968c0-8.386719 4.132813-16.683594 11.636719-20.433594 5.816406-2.910156 11.636719-8.730469 11.636719-20.363282 0-11.636718-5.820313-17.457031-11.636719-20.367187-7.503906-3.75-11.636719-12.046875-11.636719-20.433594v-34.765625c0-8.386718 4.132813-16.683594 11.636719-20.433594 5.816406-2.910156 11.636719-8.730468 11.636719-20.367187 0-11.632813-5.820313-17.453125-11.636719-20.363281-7.503906-3.75-11.636719-12.046875-11.636719-20.433594v-75.566406c0-25.703125-20.839843-46.542969-46.546875-46.542969h-93.089844c-25.707031 0-46.542968 20.839844-46.542968 46.542969v75.566406c0 8.386719-4.132813 16.683594-11.636719 20.433594-5.820313 2.910156-11.636719 8.730468-11.636719 20.367187s5.816406 17.453125 11.636719 20.363281c7.503906 3.75 11.636719 12.046876 11.636719 20.433594v34.765625c0 8.386719-4.132813 16.683594-11.636719 20.433594-5.820313 2.910156-11.636719 8.730469-11.636719 20.367187 0 11.632813 5.816406 17.453126 11.636719 20.363282 7.503906 3.75 11.636719 12.046875 11.636719 20.433594v52.292968c0 25.707032 20.839844 46.542969 46.542968 46.542969h93.089844c25.707032 0 46.546875-20.835937 46.546875-46.542969zm0 0" fill="#48e1f4"/><path d="m209.453125 116.363281h139.636719c12.855468 0 23.273437 10.421875 23.273437 23.273438 0 12.855469-10.417969 23.273437-23.273437 23.273437h-139.636719c-12.851563 0-23.269531-10.417968-23.269531-23.273437 0-12.851563 10.417968-23.273438 23.269531-23.273438zm0 0" fill="#0ac"/><path d="m395.636719 116.363281h46.542969c12.855468 0 23.273437 10.421875 23.273437 23.273438 0 12.855469-10.417969 23.273437-23.273437 23.273437h-46.542969c-12.855469 0-23.273438-10.417968-23.273438-23.273437 0-12.851563 10.417969-23.273438 23.273438-23.273438zm0 0" fill="#007ca4"/><path d="m197.820312 232.726562h162.90625c6.425782 0 11.636719 5.210938 11.636719 11.636719s-5.210937 11.636719-11.636719 11.636719h-162.90625c-6.429687 0-11.636718-5.210938-11.636718-11.636719s5.207031-11.636719 11.636718-11.636719zm0 0" fill="#0ac"/><path d="m407.273438 186.183594h46.542968c6.425782 0 11.636719 5.207031 11.636719 11.636718 0 6.425782-5.210937 11.632813-11.636719 11.632813h-46.542968c-6.425782 0-11.636719-5.207031-11.636719-11.632813 0-6.429687 5.210937-11.636718 11.636719-11.636718zm0 0" fill="#48e1f4"/><path d="m197.820312 186.183594h162.90625c6.425782 0 11.636719 5.207031 11.636719 11.636718 0 6.425782-5.210937 11.632813-11.636719 11.632813h-162.90625c-6.429687 0-11.636718-5.207031-11.636718-11.632813 0-6.429687 5.207031-11.636718 11.636718-11.636718zm0 0" fill="#bcf4f5"/><path d="m407.273438 302.546875h46.542968c6.425782 0 11.636719 5.207031 11.636719 11.636719 0 6.425781-5.210937 11.636718-11.636719 11.636718h-46.542968c-6.425782 0-11.636719-5.210937-11.636719-11.636718 0-6.429688 5.210937-11.636719 11.636719-11.636719zm0 0" fill="#48e1f4"/><path d="m197.820312 302.546875h162.90625c6.425782 0 11.636719 5.207031 11.636719 11.636719 0 6.425781-5.210937 11.636718-11.636719 11.636718h-162.90625c-6.429687 0-11.636718-5.210937-11.636718-11.636718 0-6.429688 5.207031-11.636719 11.636718-11.636719zm0 0" fill="#bcf4f5"/><path d="m384 232.726562h69.816406c6.425782 0 11.636719 5.210938 11.636719 11.636719s-5.210937 11.636719-11.636719 11.636719h-69.816406c-6.425781 0-11.636719-5.210938-11.636719-11.636719s5.210938-11.636719 11.636719-11.636719zm0 0" fill="#007ca4"/><path d="m221.089844 349.089844h116.363281c19.28125 0 34.910156 15.628906 34.910156 34.910156s-15.628906 34.910156-34.910156 34.910156h-116.363281c-19.277344 0-34.90625-15.628906-34.90625-34.910156s15.628906-34.910156 34.90625-34.910156zm0 0" fill="#0ac"/><path d="m407.273438 349.089844h23.273437c19.277344 0 34.90625 15.628906 34.90625 34.910156s-15.628906 34.910156-34.90625 34.910156h-23.273437c-19.28125 0-34.910157-15.628906-34.910157-34.910156 0-19.277344 15.628907-34.910156 34.910157-34.910156zm0 0" fill="#007ca4"/><path d="m442.179688 46.546875h-209.453126c-25.707031 0-46.542968 20.839844-46.542968 46.542969v46.546875h279.269531c12.855469 0 23.273437-10.417969 23.273437-23.273438v-23.273437c0-25.703125-20.839843-46.542969-46.546874-46.542969zm0 0" fill="#080b36"/><path d="m349.089844 46.546875h-139.636719c-25.703125 0-46.542969 20.839844-46.542969 46.542969v23.273437c0 12.855469 10.417969 23.273438 23.273438 23.273438h186.179687c12.851563 0 23.273438-10.417969 23.273438-23.273438v-23.273437c0-25.703125-20.839844-46.542969-46.546875-46.542969zm0 0" fill="#2c2f53"/><path d="m197.820312 116.363281h162.90625c6.425782 0 11.636719 5.210938 11.636719 11.636719s-5.210937 11.636719-11.636719 11.636719h-162.90625c-6.429687 0-11.636718-5.210938-11.636718-11.636719s5.207031-11.636719 11.636718-11.636719zm0 0" fill="#1e2147"/><path d="m442.179688 93.089844c12.855468 0 23.273437 10.421875 23.273437 23.273437v46.546875c0 12.851563-10.417969 23.273438-23.273437 23.273438-12.851563 0-23.269532-10.421875-23.269532-23.273438v-46.546875c0-12.851562 10.417969-23.273437 23.269532-23.273437zm0 0" fill="#2c2f53"/><path d="m174.546875 395.636719h302.542969c19.28125 0 34.910156 15.628906 34.910156 34.910156 0 19.277344-15.628906 34.90625-34.910156 34.90625h-302.542969c-19.28125 0-34.910156-15.628906-34.910156-34.90625 0-19.28125 15.628906-34.910156 34.910156-34.910156zm0 0" fill="#1e2147"/><path d="m174.546875 395.636719h162.90625c19.28125 0 34.910156 15.628906 34.910156 34.910156 0 19.277344-15.628906 34.90625-34.910156 34.90625h-162.90625c-19.28125 0-34.910156-15.628906-34.910156-34.90625 0-19.28125 15.628906-34.910156 34.910156-34.910156zm0 0" fill="#2c2f53"/><path d="m488.726562 465.453125c0 25.707031-20.839843 46.546875-46.546874 46.546875-25.703126 0-46.542969-20.839844-46.542969-46.546875 0-25.703125 20.839843-46.542969 46.542969-46.542969 25.707031 0 46.546874 20.839844 46.546874 46.542969zm0 0" fill="#4c4f6e"/><path d="m488.726562 465.453125h-93.089843c-12.855469 0-23.273438-10.417969-23.273438-23.269531v-46.546875c0-25.707031 20.839844-46.546875 46.546875-46.546875h46.542969c25.707031 0 46.546875 20.839844 46.546875 46.546875v46.546875c0 12.851562-10.421875 23.269531-23.273438 23.269531zm0 0" fill="#1e2147"/><path d="m279.273438 46.546875c0-23.273437 23.273437-23.273437 23.273437-23.273437v-23.273438h-23.273437l-23.273438 23.273438v23.273437zm0 0" fill="#1e2147"/><path d="m209.453125 488.726562c0 12.855469-10.417969 23.273438-23.269531 23.273438-12.855469 0-23.273438-10.417969-23.273438-23.273438 0-12.851562 10.417969-23.273437 23.273438-23.273437 12.851562 0 23.269531 10.421875 23.269531 23.273437zm0 0" fill="#4c4f6e"/><path d="m349.089844 488.726562c0 12.855469-10.417969 23.273438-23.273438 23.273438-12.851562 0-23.269531-10.417969-23.269531-23.273438 0-12.851562 10.417969-23.273437 23.269531-23.273437 12.855469 0 23.273438 10.421875 23.273438 23.273437zm0 0" fill="#4c4f6e"/><path d="m372.363281 46.546875s0-23.273437-23.273437-23.273437h-69.816406c-23.273438 0-23.273438 23.273437-23.273438 23.273437h-46.546875s0-46.546875 69.820313-46.546875h93.089843c46.546875 0 69.816407 23.273438 69.816407 46.546875zm0 0" fill="#2c2f53"/><path d="m325.816406 279.273438c0 25.707031-20.835937 46.546874-46.542968 46.546874-25.707032 0-46.546876-20.839843-46.546876-46.546874 0-25.707032 20.839844-46.546876 46.546876-46.546876 25.707031 0 46.542968 20.839844 46.542968 46.546876zm0 0" fill="#4c4f6e"/><path d="m325.816406 290.910156c0 19.28125-15.628906 34.910156-34.90625 34.910156-19.28125 0-34.910156-15.628906-34.910156-34.910156s15.628906-34.910156 34.910156-34.910156c19.277344 0 34.90625 15.628906 34.90625 34.910156zm0 0" fill="#080b36"/><path d="m174.546875 442.183594h162.90625c6.425781 0 11.636719 5.207031 11.636719 11.632812 0 6.429688-5.210938 11.636719-11.636719 11.636719h-162.90625c-6.429687 0-11.636719-5.207031-11.636719-11.636719 0-6.425781 5.207032-11.632812 11.636719-11.632812zm0 0" fill="#1e2147"/><path d="m384 337.453125c-91.273438 0-121-40.632813-124.089844-45.269531-7.128906-10.695313-4.238281-25.148438 6.457032-32.277344 10.472656-6.980469 24.59375-4.371094 31.882812 5.890625 1.136719 1.386719 21.773438 25.113281 85.75 25.113281 65.589844 0 85.613281-24.933594 85.796875-25.183594 7.679687-9.90625 22.113281-12.292968 32.246094-5.019531 10.234375 7.105469 12.917969 21.082031 6.046875 31.476563-3.089844 4.636718-32.816406 45.269531-124.089844 45.269531zm0 0" fill="#2c2f53"/><path d="m116.363281 395.636719-101.734375 40.695312c-8.835937 3.53125-14.628906 12.089844-14.628906 21.605469v30.789062c0 12.855469 10.421875 23.273438 23.273438 23.273438h232.726562c12.851562 0 23.273438-10.417969 23.273438-23.273438v-30.789062c0-9.515625-5.792969-18.074219-14.628907-21.605469l-101.734375-40.695312zm0 0" fill="#4c4f6e"/><path d="m116.363281 418.910156h46.546875c12.851563 0 23.273438 10.417969 23.273438 23.273438 0 12.851562-10.421875 23.269531-23.273438 23.269531h-46.546875c-12.851562 0-23.273437-10.417969-23.273437-23.269531 0-12.855469 10.421875-23.273438 23.273437-23.273438zm0 0" fill="#2c2f53"/><path d="m128 372.363281h23.273438c19.277343 0 34.910156 15.628907 34.910156 34.910157 0 19.277343-15.628906 34.910156-34.910156 34.910156h-23.273438c-19.277344 0-34.910156-15.628906-34.910156-34.910156s15.628906-34.910157 34.910156-34.910157zm0 0" fill="#999aac"/><path d="m139.636719 256c12.851562 0 23.273437 10.421875 23.273437 23.273438v46.546874c0 12.851563-10.421875 23.269532-23.273437 23.269532-12.851563 0-23.273438-10.417969-23.273438-23.269532v-46.546874c0-12.851563 10.421875-23.273438 23.273438-23.273438zm0 0" fill="#4c4f6e"/><path d="m23.273438 465.453125h232.726562c12.851562 0 23.273438 10.421875 23.273438 23.273437 0 12.855469-10.421876 23.273438-23.273438 23.273438h-232.726562c-12.851563 0-23.273438-10.417969-23.273438-23.273438 0-12.851562 10.421875-23.273437 23.273438-23.273437zm0 0" fill="#2c2f53"/><path d="m34.910156 488.726562h209.453125c6.425781 0 11.636719 5.210938 11.636719 11.636719s-5.210938 11.636719-11.636719 11.636719h-209.453125c-6.425781 0-11.636718-5.210938-11.636718-11.636719s5.210937-11.636719 11.636718-11.636719zm0 0" fill="#1e2147"/><path d="m418.910156 46.546875h23.269532c12.855468 0 23.273437 10.417969 23.273437 23.273437 0 12.851563-10.417969 23.273438-23.273437 23.273438h-23.269532c-12.855468 0-23.273437-10.421875-23.273437-23.273438 0-12.855468 10.417969-23.273437 23.273437-23.273437zm0 0" fill="#1e2147"/><path d="m209.453125 46.546875h139.636719c12.855468 0 23.273437 10.417969 23.273437 23.273437 0 12.851563-10.417969 23.273438-23.273437 23.273438h-139.636719c-12.851563 0-23.269531-10.421875-23.269531-23.273438 0-12.855468 10.417968-23.273437 23.269531-23.273437zm0 0" fill="#4c4f6e"/><path d="m465.453125 349.089844h-46.773437c-.023438 0-.042969 0-.066407.003906h-.160156c-.023437 0-.042969 0-.070313 0h-.066406c-.007812 0-.015625.003906-.023437 0h-.066407c-.023437.003906-.046874.003906-.070312.003906h-.003906c-.019532 0-.042969 0-.0625 0h-.09375c-.015625 0-.035156.003906-.054688.003906h-.011718c-.023438 0-.042969 0-.066407 0h-.023437c-.015625.003907-.03125.003907-.046875.003907h-.023438c-.011719 0-.03125 0-.042969 0h-.027343c-.019531 0-.039063 0-.0625.003906h-.019531c-.015626 0-.03125 0-.050782 0h-.019531c-.015625 0-.035156 0-.050781.003906h-.019532c-.023437 0-.042968 0-.066406 0h-.011718c-.019532 0-.039063.003907-.058594.003907h-.019532c-.015624 0-.03125 0-.046874 0h-.023438c-.019531.003906-.039062.003906-.058594.003906h-.007812c-.027344.003906-.046875.003906-.070313.003906h-.019531l-.046875.003906h-.023437c-.015626 0-.035157 0-.050782 0h-.019531c-.019531.003906-.042969.003906-.0625.003906h-.019531c-.015625 0-.035156.003907-.050782.003907h-.070312l-.019531.003906c-.023438 0-.042969 0-.0625 0l-.019531.003906c-.015626 0-.035157 0-.054688.003907h-.066406l-.023438.003906c-.015625 0-.035156 0-.054687 0h-.011719l-.066406.003906-.019532.003906h-.070312c-.019531.003906-.035156.003906-.050781.003906l-.019531.003907-.066407.003906h-.011719c-.019531 0-.035156 0-.054687 0l-.023437.003906-.046876.003907h-.019531l-.066406.003906h-.015625c-.015625 0-.035156.003906-.054688.003906h-.019531c-.015625.003906-.03125.003906-.046875.003906l-.023437.003906-.132813.007813h-.019531c-.015625 0-.03125.003906-.050781.003906h-.019532l-.050781.003907-.015625.003906-.070312.003906h-.015625l-.050781.003906h-.023438l-.050781.003906-.015625.003907-.066406.003906h-.007813l-.058594.003906-.023437.003907-.046875.003906h-.019531c-.019532.003906-.042969.003906-.0625.003906h-.003907c-.023437.003906-.042969.007812-.066406.007812l-.023437.003907c-.015626 0-.027344 0-.042969 0l-.023438.003906-.046875.003906h-.023437c-.019531.003907-.039063.007813-.0625.007813h-.023438l-.042969.003906-.023437.003906-.046875.003906h-.019531c-.023438.003907-.042969.003907-.066407.007813l-.015624.003906-.050782.003907h-.023437l-.046875.003906-.019532.003906-.054687.003906-.027344.003906-.046875.003907c-.011718 0-.019531.003906-.03125.003906l-.035156.003906c-.011719 0-.023438 0-.03125 0l-.039062.003907-.027344.003906c-.019532.003906-.039063.003906-.058594.007812-.011719 0-.019531 0-.027344.003906l-.039062.003907c-.011719 0-.019532 0-.03125 0l-.039063.003906c-.007812 0-.015625.003906-.023437.003906-.023438.003907-.042969.003907-.0625.007813h-.023438c-.015625.003906-.03125.007812-.042968.007812h-.027344l-.039063.007813c-.007812 0-.019531 0-.027343 0-.019532.003906-.039063.003906-.058594.007812h-.007813c-.019531.003907-.042969.003907-.0625.007813l-.023437.003906-.042969.003906-.023437.003906c-.015626 0-.03125.003907-.050782.003907l-.015625.003906-.066406.007813h-.015625l-.050781.015624-.023438.003907c-.011719.003906-.027343.003906-.042969.003906-.007812.003906-.015624.003906-.023437.003906l-.0625.007813-.019531.003906c-.015625 0-.03125 0-.046875.003906-.007813 0-.015625.003906-.023438.003906l-.042969.003907-.023437.003906-.058594.007813-.015625.003906-.054687.003906c-.007813.003906-.015625.003906-.023438.003906-.015625.003906-.03125.003906-.042969.003906l-.023437.003907c-.015625.003906-.035156.007812-.054687.007812l-.011719.003907-.0625.007812h-.023438c-.015625.003906-.027343.007812-.042969.007812l-.027343.003907-.042969.003906c-.003906.003906-.011719.003906-.019531.003906-.019531.003907-.042969.007813-.0625.011719h-.023438c-.015625.003906-.027343.007812-.042969.007812l-.023437.003907c-.015625.003906-.027344.003906-.042969.003906l-.023437.003906c-.019531.003907-.035157.003907-.050781.007813-.011719 0-.023438.003906-.035157.007812-.015625 0-.027343 0-.042969.003906l-.027343.003907-.039063.003906-.023437.003906c-.015625.003907-.027344.007813-.042969.007813l-.023438.003906c-.019531.003906-.042968.003906-.0625.011719h-.019531c-.015625.003906-.03125.003906-.046875.007812l-.019531.003907-.050781.007812-.015625.003906c-.023438 0-.042969.003906-.066407.007813l-.019531.003906c-.011719 0-.03125.003906-.042969.007813l-.027343.003906c-.011719 0-.023438.003906-.039063.003906-.007812.003906-.019531.003906-.027344.007812l-.058593.007813h-.019531l-.046876.011719-.027343.003906-.039063.003906-.023437.003906c-.015625.003907-.03125.003907-.046875.007813l-.023438.003906c-.019531.003907-.039062.007813-.054687.011719l-.027344.003906c-.015625 0-.023437.003906-.039063.003906-.007812.003907-.019531.007813-.027343.007813l-.039063.007813-.027344.003906c-.019531 0-.039062.003906-.058593.007812l-.023438.003906c-.015625.003907-.027343.007813-.042969.007813-.007812 0-.015624.003906-.027343.003906-.011719.003907-.019531.003907-.03125.007813l-.035157.003906c-.011718.003906-.023437.003906-.035156.007812-.015625 0-.03125.003907-.046875.007813l-.039062.007813c-.007813 0-.019531.003906-.027344.003906l-.039063.007812-.027343.003906c-.011719.003907-.023438.003907-.035157.007813l-.085937.015625-.03125.003906-.03125.007813-.035156.003906c-.007813.003906-.019531.003906-.03125.007813l-.03125.003906-.054688.011718-.035156.007813c-.011719 0-.019531.003906-.027344.003906l-.035156.007813-.03125.003906c-.011719.003906-.023437.003906-.03125.007812-.019531.003907-.039063.007813-.058594.011719l-.027343.003907c-.011719.003906-.023438.003906-.035157.007812l-.035156.003906c-.007813.003906-.019531.007813-.027344.007813-.011719.003906-.023437.003906-.035156.007812l-.027344.003907-.066406.011718-.023437.007813c-.011719 0-.027344.003906-.039063.007812l-.019531.003907-.042969.007812-.015625.003906c-.046875.007813-.089844.019532-.136719.027344l-.023437.003906-.039063.007813-.023437.003906-.039063.007813-.027343.007812-.058594.011719-.027344.007812-.039062.007813c-.007813 0-.015626 0-.023438.003906-.011719.003906-.023438.003906-.035156.007812l-.03125.003907c-.019532.007812-.039063.011719-.0625.015625l-.023438.003906c-.011718.003906-.023437.007812-.035156.007812l-.027344.007813c-.011718 0-.023437.003906-.035156.007813l-.03125.003906-.042969.011718c-.011719.003907-.027343.003907-.042969.007813l-.03125.007813c-.011718.003906-.023437.003906-.035156.007812l-.027344.003906-.035156.011719c-.007812 0-.019531.003906-.03125.003906l-.023437.003907c-.023438.007812-.042969.011718-.066407.019531l-.027343.003906-.035157.007813-.027343.007812c-.011719.003906-.023438.003906-.035157.007812l-.027343.003907-.058594.015625-.03125.007812c-.011719 0-.019531.003906-.03125.007813l-.03125.003906-.03125.007813c-.011719.003906-.019531.003906-.03125.007812l-.039063.007812c-.019531.003907-.03125.007813-.046874.011719l-.035157.007813c-.011719.003906-.019531.007812-.03125.007812l-.03125.007813-.027343.007812-.035157.007813-.027343.007812c-.019532.003906-.039063.007813-.058594.011719l-.03125.007813c-.011719.003906-.023438.007812-.035156.007812-.007813.003906-.019532.007812-.027344.007812l-.03125.007813-.027344.007813c-.023438.003906-.042969.011718-.0625.015624l-.027344.007813-.035156.007813c-.007812 0-.015625.003906-.023438.003906-.011718.003906-.027343.007812-.039062.011718l-.019531.003907c-.03125.007812-.058594.015625-.089844.023437h-.003906c-.011719.003906-.027344.007813-.039063.011719l-.019531.003906c-.015625.003907-.027344.007813-.039063.011719l-.019531.003906c-.046875.011719-.09375.023438-.140625.035156l-.011718.003907c-.015626.003906-.027344.007812-.042969.011719l-.019531.007812c-.011719 0-.027344.003906-.039063.007812l-.011719.003907c-.027344.007812-.054687.015625-.085937.023437l-.011719.003906c-.015625 0-.03125.007813-.042969.011719l-.019531.003907c-.011719.003906-.027344.007812-.042969.011718l-.011719.003906-.09375.023438h-.003906c-.011718.003906-.023437.007812-.039062.011719l-.019532.007812-.039062.007813-.019531.007812-.039063.011719h-.007812c-.03125.007813-.058594.015625-.085938.023437l-.019531.007813c-.011719.003906-.027344.003906-.039063.007813l-.015624.007812-.042969.011719h-.003907c-.035156.007812-.066406.019531-.097656.027343l-.007812.003907-.042969.011719-.015625.003906-.042969.011718-.015625.003907c-.042968.015625-.089844.027343-.136718.039062l-.015626.007813-.042968.011718-.015625.003907c-.042969.015625-.09375.027343-.136719.039062l-.015625.003907-.039063.011718-.019531.007813-.042969.011719c-.03125.011718-.0625.019531-.09375.027343l-.011718.003907c-.015625.003906-.027344.011718-.042969.015624l-.015625.003907-.042969.011719h-.003906c-.046875.015624-.097656.03125-.144531.046874l-.015625.003907-.046875.015625h-.003906c-.046876.015625-.097657.03125-.148438.046875l-.007812.003906-.046876.015625h-.007812c-.046875.015625-.09375.03125-.140625.042969l-.015625.007812-.042969.011719-.015625.003906c-.015625.007813-.027344.007813-.042968.015625h-.003907c-.050781.015625-.097656.03125-.148437.050781h-.007813c-.015625.003907-.03125.011719-.042969.015626l-.011718.003906c-.046875.015625-.097656.03125-.144532.046875l-.007812.003906c-.015625.003906-.03125.007813-.042969.015625l-.011719.003906c-.054687.015625-.101562.03125-.152343.046875l-.046875.019531h-.007813l-.199219.070313h-.007812c-.066406.023437-.132812.046875-.199219.070313l-.007812.003906c-.015625.003906-.03125.007812-.046875.015625h-.007813c-.066406.023437-.132812.046875-.199219.070312v.003907c-.070312.023437-.136718.046874-.203124.070312l-.007813.003906-.046875.015625h-.003906c-.136719.050781-.269532.097657-.40625.152344h-.003906c-.066407.023437-.132813.050781-.199219.074219h-.003907l-.199218.078125h-.003906c-9.433594 3.625-17.4375 10.210937-22.808594 18.773437-.039063.0625-.074219.117188-.113282.179688l-.003906.007812c-.035156.058594-.074218.117188-.109375.175782l-.003906.003906c-.035156.058594-.074219.121094-.109375.179687v.003907c-.011719.015624-.019531.027343-.027344.042968v.003906c-.03125.042969-.054687.089844-.082031.132813l-.003906.003906c-.007813.015625-.015625.027344-.023438.042969l-.003906.007812c-.007813.015626-.019531.027344-.023437.039063l-.007813.003906c-.015625.03125-.03125.058594-.046875.085938l-.003906.003906-.023438.039063-.007812.011718-.027344.054688c-.023438.039062-.046875.078125-.070312.117187l-.011719.015625-.019531.035156-.011719.019532c-.023438.039062-.042969.078125-.066407.113281l-.011718.015625c-.003906.011719-.011719.023438-.015625.035156-.003907.007813-.011719.015625-.015625.023438l-.015625.03125-.015625.019531c-.011719.019531-.023438.039063-.03125.058594l-.011719.019531c-.007813.007812-.015625.019531-.019531.03125l-.011719.023438-.019531.03125-.011719.023437-.035156.058594-.011719.015625c-.003906.011718-.011719.023437-.015625.035156l-.015625.019531c-.003906.011719-.011719.023438-.015625.03125l-.015625.023438-.015625.03125c-.003906.007812-.007813.015625-.015625.023437l-.027344.054688c-.003906.011718-.007812.015625-.015625.023437-.003906.011719-.011719.023438-.015625.03125l-.011718.019531-.019532.035157-.007812.015625c-.011719.019531-.023438.042968-.035156.0625l-.011719.023437-.019531.03125-.011719.019531c-.003907.011719-.011719.023438-.019531.035157l-.011719.019531c-.007813.019531-.019531.035156-.027344.054688-.007813.007812-.011719.019531-.015625.027343-.003906.007813-.011719.019531-.015625.027344l-.015625.023437-.027344.054688c-.019531.039062-.042968.074219-.0625.113281l-.007812.019531-.019532.035157-.011718.019531-.019532.035156-.011718.023438c-.011719.015625-.019532.03125-.027344.046875-.003906.011719-.007812.019531-.015625.03125-.003906.007812-.007813.019531-.015625.027343l-.015625.027344-.011719.027344-.019531.03125-.015625.035156-.023438.039063-.011718.027343-.03125.054688-.027344.054688-.03125.054687-.003906.015625c-.007813.015625-.015625.027344-.023438.039062l-.011718.023438-.019532.035156-.011718.019532c-.007813.019531-.015626.039062-.027344.058593l-.027344.054688-.011719.019531c-.003906.011719-.015625.027344-.019531.039062l-.011719.015626-.023437.054687-.003906.003906c-.007813.019531-.019532.039063-.027344.058594l-.007813.015625c-.007812.015625-.015625.027344-.023437.042969l-.007813.015625c-.007812.015625-.019531.035156-.023437.050781l-.003906.007813-.03125.058593-.003907.011719-.027343.042969-.003907.015625c-.007812.015625-.019531.035156-.027343.050781l-.035157.070313-.027343.058593-.007813.011719-.019531.046875-.007813.011719-.058593.121094-.003907.007812c-.007812.015625-.019531.035156-.023437.050781l-.007813.011719c-.019531.042969-.039062.078125-.058593.121094l-.003907.007812c-.007812.015625-.015625.03125-.023437.050782l-.007813.011718c-.007812.015625-.015625.035156-.023437.050782l-.003906.007812-.058594.125-.003906.003906c-.007813.019532-.015626.039063-.027344.058594v.003906c-.019532.042969-.039063.085938-.058594.125h-.003906c-.007813.019532-.015625.042969-.027344.0625v.003906c-.03125.0625-.058594.125-.089844.191407-.03125.066406-.058594.125-.089844.191406v.003906l-.113281.25-.003906.003907c-.339844.753906-.648437 1.527343-.964844 2.292968-1.980469 5.40625-3.042969 11.105469-3.144531 16.863282v46.542968c-.007812 12.851563 10.410156 23.277344 23.261719 23.28125 12.851562.003906 23.277343-10.410156 23.28125-23.261718 0-.007813 0-.011719 0-.019532v-46.523437c0-12.851563 10.421875-23.273438 23.273437-23.273438h23.273438c6.425781 0 11.636718-5.210937 11.636718-11.636719-.011718-6.425781-5.222656-11.636718-11.648437-11.636718zm0 0" fill="#2c2f53"/><path d="m430.546875 349.089844h23.269531c6.429688 0 11.636719 5.210937 11.636719 11.636718 0 6.425782-5.207031 11.636719-11.636719 11.636719h-23.269531c-6.429687 0-11.636719-5.210937-11.636719-11.636719 0-6.425781 5.207032-11.636718 11.636719-11.636718zm0 0" fill="#4c4f6e"/><path d="m430.546875 116.363281c6.425781 0 11.632813 5.210938 11.632813 11.636719v23.273438c0 6.425781-5.207032 11.636718-11.632813 11.636718-6.429687 0-11.636719-5.210937-11.636719-11.636718v-23.273438c0-6.425781 5.207032-11.636719 11.636719-11.636719zm0 0" fill="#4c4f6e"/><path d="m128 418.910156h23.273438c6.425781 0 11.636718 5.207032 11.636718 11.636719 0 6.425781-5.210937 11.636719-11.636718 11.636719h-23.273438c-6.425781 0-11.636719-5.210938-11.636719-11.636719 0-6.429687 5.210938-11.636719 11.636719-11.636719zm0 0" fill="#7c7f95"/></svg>