<?xml version="1.0" encoding="iso-8859-1"?>
<!-- Generator: Adobe Illustrator 19.0.0, SVG Export Plug-In . SVG Version: 6.00 Build 0)  -->
<svg version="1.1" id="Capa_1" xmlns="http://www.w3.org/2000/svg" xmlns:xlink="http://www.w3.org/1999/xlink" x="0px" y="0px"
	 viewBox="0 0 512 512" style="enable-background:new 0 0 512 512;" xml:space="preserve">
<g>
	<path style="fill:#FFDCAF;" d="M166.779,192.351h-8c-13.255,0-24-10.745-24-24l0,0c0-13.255,10.745-24,24-24h8"/>
	<path style="fill:#FFDCAF;" d="M345.219,192.351h8c13.255,0,24-10.745,24-24l0,0c0-13.255-10.745-24-24-24h-8"/>
</g>
<g>
	<path style="fill:#FFCDAC;" d="M166.779,192.351h-8c-13.255,0-24-10.745-24-24l0,0c0-13.255,10.745-24,24-24h8V192.351z"/>
	<path style="fill:#FFCDAC;" d="M345.219,192.351h8c13.255,0,24-10.745,24-24l0,0c0-13.255-10.745-24-24-24h-8V192.351z"/>
</g>
<path style="fill:#F5C86E;" d="M363.798,134v-18.154C363.798,57.389,316.409,10,257.952,10h-3.906
	C195.589,10,148.2,57.389,148.2,115.846V134H363.798z"/>
<path style="fill:#737882;" d="M306.02,267.58v31.463l137.037,32.437c18.54,4.388,31.633,20.943,31.633,39.995V502H37.307V371.45
	c0-19.041,13.078-35.588,31.603-39.988l136.512-32.419v-31.3L306.02,267.58z"/>
<polygon style="fill:#D7D7E6;" points="147.688,312.754 215.956,381.023 255.999,340.98 296.042,381.023 364.241,312.824 
	306.02,290.958 255.999,340.98 205.422,290.403 "/>
<polygon style="fill:#FFCDAC;" points="205.422,287.719 256.126,338.422 306.02,288.528 306.02,267.58 205.422,267.743 "/>
<g>
	<rect x="113.989" y="321.98" style="fill:#FF5A5A;" width="40" height="88.01"/>
	<rect x="357.989" y="321.98" style="fill:#FF5A5A;" width="40" height="88.01"/>
	<rect x="113.989" y="409.99" style="fill:#FF5A5A;" width="284" height="92.01"/>
</g>
<path style="fill:#FFCDAC;" d="M345.219,134v50.058c0,48.382-39.221,87.603-87.603,87.603h-3.232
	c-48.382,0-87.603-39.221-87.603-87.603V134H345.219z"/>
<path style="fill:#737882;" d="M307.081,204.887c-2.484,1.722-3.308,2.094-7.478,2.094c-9.793,0-16.979-12.774-29.779-12.774
	c-3.561,0-8.475,1.373-13.845,6.155c-5.37-4.782-10.284-6.155-13.845-6.155c-12.8,0-19.986,12.774-29.779,12.774
	c-4.17,0-4.994-0.372-7.478-2.094c-2.728-1.892-2.937,0.045-2.477,1.533c2.659,7.219,12.637,19.53,26.306,19.53
	c12.609,0,21.195-3.325,27.273-10.723c6.078,7.398,14.664,10.723,27.273,10.723c13.67,0,23.647-12.31,26.306-19.53
	C310.018,204.932,309.81,202.995,307.081,204.887z"/>
<path style="fill:#E09248;" d="M307.999,102h-104c-17.673,0-32,14.327-32,32l0,0h168l0,0C339.999,116.327,325.672,102,307.999,102z"
	/>
<path d="M484.691,371.475c0-23.797-16.173-44.245-39.33-49.726l-129.34-30.615v-0.171c0-0.003,0-0.007,0-0.01v-28.742
	c19.128-14.331,32.837-35.511,37.473-59.867c18.621-0.149,33.726-15.337,33.726-33.993c0-11.877-6.126-22.344-15.379-28.426
	c1.225-1.66,1.958-3.704,1.958-5.925v-18.154c0-43.286-23.867-81.096-59.129-100.979c-0.451-0.308-0.937-0.574-1.444-0.808
	C296.788,5.097,277.954,0,257.952,0h-3.905c-20.002,0-38.836,5.097-55.273,14.058c-0.508,0.234-0.993,0.5-1.444,0.808
	c-35.262,19.884-59.129,57.694-59.129,100.979V134c0,2.221,0.733,4.266,1.958,5.925c-9.253,6.082-15.379,16.549-15.379,28.426
	c0,18.656,15.104,33.844,33.726,33.993c4.592,24.126,18.09,45.131,36.935,59.454c-0.004,0.115-0.017,0.229-0.017,0.345v28.996
	L66.6,321.732c-23.135,5.494-39.293,25.938-39.293,49.718V502c0,5.522,4.477,10,10,10h437.384c5.523,0,10-4.478,10-10v-31.5
	c0-5.522-4.477-10-10-10s-10,4.478-10,10V492h-56.698v-82.007v-76.536l32.762,7.755c14.094,3.335,23.937,15.779,23.937,30.263V398
	c0,5.522,4.477,10,10,10s10-4.478,10-10v-26.525H484.691z M163.993,399.993v-56.792l44.892,44.892
	c3.905,3.904,10.237,3.904,14.143,0l32.971-32.971l32.972,32.972c1.953,1.952,4.512,2.929,7.071,2.929
	c2.559,0,5.119-0.977,7.071-2.929l44.88-44.88v56.779L163.993,399.993L163.993,399.993z M123.993,328.659l20-4.75v76.084h-20
	V328.659z M344.495,318.427l-48.453,48.453l-25.9-25.9l32.523-32.523c0.343,0.122,0.692,0.233,1.052,0.318L344.495,318.427z
	 M355.219,182.192v-27.681c6.773,0.976,12,6.801,12,13.84S361.992,181.216,355.219,182.192z M158.201,115.846
	c0-31.594,15.37-59.663,39.021-77.134l11.352,37.717c1.302,4.328,5.274,7.121,9.572,7.121c0.955,0,1.925-0.138,2.886-0.427
	c5.289-1.592,8.286-7.17,6.694-12.458l-12.742-42.336c9.61-4.307,20.054-7.073,31.016-7.988v49.821c0,5.522,4.477,10,10,10
	s10-4.478,10-10V20.341c10.962,0.916,21.406,3.682,31.016,7.988l-12.742,42.336c-1.592,5.288,1.405,10.866,6.694,12.458
	c0.961,0.289,1.931,0.427,2.886,0.427c4.297,0,8.27-2.794,9.572-7.121l11.352-37.717c23.652,17.47,39.021,45.539,39.021,77.134V124
	h-5.011c-4.499-18.345-21.075-32-40.787-32H203.999c-19.713,0-36.288,13.655-40.787,32h-5.011L158.201,115.846L158.201,115.846z
	 M327.592,124H184.406c3.647-7.118,11.061-12,19.593-12h104C316.532,112,323.945,116.882,327.592,124z M144.779,168.352
	c0-7.039,5.227-12.865,12-13.84v27.681C150.007,181.216,144.779,175.391,144.779,168.352z M176.779,184.058V144h158.44v40.058
	c0,42.791-34.813,77.604-77.604,77.604h-3.232C211.592,261.661,176.779,226.849,176.779,184.058z M254.383,281.661h3.232
	c13.629,0,26.612-2.812,38.405-7.88v13.034l-40.021,40.022l-40.577-40.576v-12.722C227.365,278.758,240.54,281.661,254.383,281.661z
	 M207.733,308.772c0.501-0.119,0.982-0.28,1.448-0.469l32.676,32.675l-25.901,25.901l-48.534-48.534L207.733,308.772z
	 M47.307,371.45c0-14.472,9.834-26.915,23.914-30.259l32.771-7.783v76.584V492H47.307V371.45z M123.993,492v-72.007h30h204h30V492
	H123.993z M387.993,399.993h-20v-76.004l20,4.734V399.993z"/>
<path d="M474.689,423.67c-2.63,0-5.21,1.06-7.07,2.93c-1.86,1.86-2.93,4.431-2.93,7.07c0,2.63,1.07,5.21,2.93,7.07
	c1.86,1.859,4.44,2.93,7.07,2.93c2.64,0,5.21-1.07,7.07-2.93c1.86-1.86,2.93-4.44,2.93-7.07c0-2.64-1.07-5.21-2.93-7.07
	C479.899,424.729,477.319,423.67,474.689,423.67z"/>
<path d="M153.979,438c-2.63,0-5.21,1.069-7.07,2.93c-1.86,1.86-2.93,4.44-2.93,7.07s1.07,5.21,2.93,7.069
	c1.86,1.86,4.44,2.931,7.07,2.931s5.21-1.07,7.07-2.931c1.86-1.859,2.93-4.439,2.93-7.069s-1.07-5.21-2.93-7.07
	S156.609,438,153.979,438z"/>
<path d="M365.059,440.93c-1.86-1.86-4.44-2.93-7.07-2.93s-5.21,1.069-7.07,2.93s-2.93,4.44-2.93,7.07s1.07,5.21,2.93,7.069
	c1.86,1.86,4.44,2.931,7.07,2.931c2.64,0,5.21-1.07,7.07-2.931c1.87-1.859,2.93-4.439,2.93-7.069S366.929,442.79,365.059,440.93z"/>
<path d="M228.707,235.95c11.124,0,20.135-2.39,27.272-7.267c7.137,4.877,16.149,7.267,27.272,7.267
	c19.003,0,31.977-15.993,35.69-26.073c0.062-0.168,0.119-0.337,0.172-0.507c1.588-5.146,0.083-10.325-3.834-13.193
	c-1.504-1.103-6.952-4.323-13.896,0.492c0,0,0,0,0,0.001c-0.171,0.118-0.309,0.212-0.419,0.287c-0.28,0.013-0.711,0.024-1.36,0.024
	c-1.436,0-4.595-2.195-7.133-3.959c-5.353-3.721-12.685-8.815-22.646-8.815c-3.518,0-8.392,0.776-13.845,3.871
	c-5.453-3.095-10.327-3.871-13.845-3.871c-9.961,0-17.293,5.095-22.646,8.815c-2.539,1.764-5.697,3.959-7.133,3.959
	c-0.649,0-1.08-0.012-1.36-0.024c-0.111-0.075-0.249-0.169-0.42-0.288c-6.943-4.814-12.391-1.596-13.896-0.492
	c-3.918,2.868-5.423,8.047-3.834,13.193c0.053,0.17,0.11,0.339,0.172,0.507C196.73,219.957,209.704,235.95,228.707,235.95z
	 M269.824,204.207c3.694,0,7.188,2.428,11.232,5.238c2.527,1.756,5.222,3.629,8.239,5.068c-1.872,0.889-3.905,1.437-6.043,1.437
	c-12.104,0-16.673-3.575-19.546-7.071c-0.32-0.39-0.667-0.752-1.036-1.085C266.32,204.558,268.888,204.207,269.824,204.207z
	 M230.902,209.445c4.045-2.811,7.539-5.238,11.233-5.238c0.937,0,3.504,0.351,7.154,3.587c-0.369,0.333-0.716,0.695-1.036,1.085
	c-2.873,3.496-7.442,7.071-19.546,7.071c-2.138,0-4.172-0.548-6.043-1.437C225.681,213.074,228.375,211.201,230.902,209.445z"/>
<path d="M260.499,452h-51c-5.523,0-10,4.478-10,10s4.477,10,10,10h51c5.523,0,10-4.478,10-10S266.022,452,260.499,452z"/>
<path d="M302.499,452c-2.63,0-5.21,1.069-7.07,2.93c-1.86,1.86-2.93,4.44-2.93,7.07s1.07,5.21,2.93,7.069
	c1.86,1.86,4.44,2.931,7.07,2.931s5.21-1.07,7.07-2.931c1.86-1.859,2.93-4.439,2.93-7.069s-1.07-5.21-2.93-7.07
	S305.129,452,302.499,452z"/>
<g>
</g>
<g>
</g>
<g>
</g>
<g>
</g>
<g>
</g>
<g>
</g>
<g>
</g>
<g>
</g>
<g>
</g>
<g>
</g>
<g>
</g>
<g>
</g>
<g>
</g>
<g>
</g>
<g>
</g>
</svg>
