<svg height="512pt" viewBox="0 -75 512 512" width="512pt" xmlns="http://www.w3.org/2000/svg"><path d="m482 320.699219-30 39.300781h-301l-30-40.199219 3-4.800781 27-45h301l26.699219 45zm0 0" fill="#ede9e8"/><path d="m482 320.699219-30 39.300781h-301l-30-40.199219 3-4.800781h354.699219zm0 0" fill="#d2c5c2"/><path d="m467 240c-24.8125 0-45-20.1875-45-45s20.1875-45 45-45 45 20.1875 45 45-20.1875 45-45 45zm0 0" fill="#fed2a4"/><path d="m362 180c-9.464844 0-19.675781-2.242188-28.054688-6.519531-21.417968 8.644531-44.472656 8.644531-65.890624 0-8.378907 4.277343-17.59375 6.519531-27.054688 6.519531-33.09375 0-60-26.910156-60-60 0-22.984375 13.078125-43.519531 33.324219-53.523438 10.476562-38.996093 45.660156-66.476562 86.675781-66.476562s77.199219 27.480469 87.675781 66.476562c20.242188 10.003907 33.324219 30.539063 33.324219 53.523438 0 33.089844-26.910156 60-60 60zm0 0" fill="#fed2a4"/><path d="m151 270v90l-151 1v-90zm0 0" fill="#ffd400"/><path d="m0 316 151-1v45l-151 1zm0 0" fill="#ff9f00"/><path d="m452 270h60v90h-60zm0 0" fill="#ff7816"/><path d="m452 315h60v45h-60zm0 0" fill="#dd3400"/></svg>