<?xml version="1.0" encoding="utf-8"?>
<!-- Generator: Adobe Illustrator 22.1.0, SVG Export Plug-In . SVG Version: 6.00 Build 0)  -->
<svg xmlns="http://www.w3.org/2000/svg" xmlns:xlink="http://www.w3.org/1999/xlink" version="1.1" id="Layer_1" x="0px" y="0px" viewBox="0 0 256 256" style="enable-background:new 0 0 256 256;" xml:space="preserve" width="512" height="512">
<style type="text/css">
	.st0{fill:#F9CFCF;}
	.st1{fill:#3762CC;}
	.st2{fill:#6BDDDD;}
	.st3{fill:#E0EBFC;}
	.st4{fill:#EAA97D;}
	.st5{fill:#A4C9FF;}
	.st6{fill:#F9A7A7;}
	.st7{fill:#4671C6;}
	.st8{fill:#FFEA92;}
	.st9{fill:#B9BEFC;}
	.st10{fill:#3962CA;}
	.st11{fill:#DDA073;}
</style>
<g>
	<g>
		<g>
			<path class="st5" d="M53.64,248h81.4c4.135,0,7.589-3.336,7.967-7.694L153.34,121h-118l10.334,119.306     C46.051,244.664,49.505,248,53.64,248z"/>
		</g>
	</g>
	<g>
		<g>
			<path class="st1" d="M135.04,250h-81.4c-5.208,0-9.489-4.093-9.959-9.521L33.348,121.172c-0.048-0.558,0.14-1.111,0.519-1.524     C34.245,119.235,34.78,119,35.34,119h118c0.561,0,1.095,0.235,1.474,0.648c0.379,0.413,0.567,0.966,0.519,1.524l-10.333,119.306     C144.528,245.907,140.247,250,135.04,250z M37.521,123l10.146,117.134c0.29,3.344,2.857,5.866,5.974,5.866h81.4     c3.116,0,5.685-2.522,5.975-5.867L151.159,123H37.521z"/>
		</g>
	</g>
	<g>
		<g>
			<g>
				<circle class="st3" cx="95.564" cy="109" r="15"/>
			</g>
		</g>
		<g>
			<g>
				<circle class="st3" cx="115.564" cy="113" r="15"/>
			</g>
		</g>
		<g>
			<g>
				<circle class="st3" cx="57.564" cy="123" r="15"/>
			</g>
		</g>
		<g>
			<g>
				<circle class="st3" cx="75.564" cy="113" r="15"/>
			</g>
		</g>
		<g>
			<g>
				<circle class="st3" cx="137.064" cy="123" r="15"/>
			</g>
		</g>
	</g>
	<g>
		<g>
			<path class="st1" d="M137.063,140c-7.187,0-13.42-4.402-15.886-10.957c-1.799,0.636-3.679,0.957-5.614,0.957     c-4.838,0-9.453-2.096-12.662-5.679c-4.581,2.205-10.094,2.206-14.676,0c-3.209,3.584-7.824,5.68-12.662,5.68     c-0.797,0-1.607-0.062-2.423-0.183C70.46,135.975,64.407,140,57.564,140c-9.374,0-17-7.626-17-17s7.626-17,17-17     c0.797,0,1.607,0.062,2.423,0.183C62.667,100.025,68.72,96,75.564,96c2.542,0,5.047,0.577,7.338,1.679     C86.111,94.096,90.726,92,95.564,92s9.453,2.095,12.662,5.68c2.291-1.103,4.796-1.68,7.338-1.68     c7.187,0,13.42,4.402,15.886,10.956c1.799-0.635,3.679-0.956,5.613-0.956c9.374,0,17,7.626,17,17S146.438,140,137.063,140z      M122.445,124.319c0.288,0,0.576,0.062,0.844,0.187c0.562,0.261,0.97,0.768,1.107,1.372c1.348,5.96,6.558,10.122,12.668,10.122     c7.168,0,13-5.832,13-13s-5.832-13-13-13c-2.088,0-4.094,0.49-5.962,1.457c-0.55,0.285-1.203,0.297-1.763,0.037     c-0.562-0.261-0.97-0.768-1.107-1.373c-1.348-5.959-6.557-10.122-12.668-10.122c-2.39,0-4.74,0.669-6.797,1.937     c-0.893,0.549-2.057,0.317-2.67-0.532C103.651,98.021,99.714,96,95.564,96s-8.088,2.021-10.533,5.405     c-0.614,0.849-1.778,1.081-2.67,0.532c-2.057-1.267-4.407-1.937-6.797-1.937c-5.699,0-10.681,3.649-12.396,9.081     c-0.319,1.011-1.372,1.598-2.399,1.336C59.68,110.14,58.602,110,57.564,110c-7.168,0-13,5.832-13,13s5.832,13,13,13     c5.699,0,10.68-3.649,12.396-9.081c0.319-1.011,1.371-1.599,2.399-1.336c1.088,0.276,2.167,0.417,3.205,0.417     c4.15,0,8.087-2.021,10.533-5.405c0.613-0.849,1.777-1.081,2.67-0.532c4.114,2.535,9.481,2.534,13.594,0     c0.892-0.549,2.056-0.317,2.67,0.532c2.445,3.384,6.383,5.405,10.533,5.405c2.088,0,4.094-0.49,5.961-1.457     C121.813,124.394,122.129,124.319,122.445,124.319z"/>
		</g>
	</g>
	<g>
		<g>
			<path class="st7" d="M30.632,141.365l-1.467-16c-0.215-2.344,1.63-4.365,3.983-4.365h122.383c2.353,0,4.198,2.022,3.983,4.365     l-1.467,16c-0.189,2.059-1.916,3.635-3.983,3.635H34.615C32.547,145,30.821,143.424,30.632,141.365z"/>
		</g>
	</g>
	<g>
		<g>
			<path class="st1" d="M154.065,147H34.615c-3.121,0-5.69-2.344-5.975-5.452l0,0l-1.467-16c-0.153-1.676,0.409-3.35,1.543-4.592     S31.466,119,33.148,119h122.384c1.682,0,3.297,0.712,4.431,1.955c1.135,1.243,1.697,2.917,1.545,4.592l-1.468,16.001     C159.755,144.656,157.186,147,154.065,147z M32.624,141.183c0.095,1.036,0.951,1.817,1.992,1.817h119.45     c1.04,0,1.896-0.782,1.992-1.818l1.467-16c0.051-0.566-0.132-1.11-0.516-1.531c-0.384-0.42-0.908-0.651-1.477-0.651H33.148     c-0.569,0-1.094,0.231-1.478,0.652c-0.383,0.42-0.566,0.964-0.514,1.531L32.624,141.183z"/>
		</g>
	</g>
	<g>
		<g>
			<path class="st4" d="M170.34,152h18V17c0-4.971-4.029-9-9-9h0c-4.971,0-9,4.029-9,9V152z"/>
		</g>
	</g>
	<g>
		<g>
			<path class="st1" d="M188.34,154h-18c-1.104,0-2-0.896-2-2V17c0-6.065,4.935-11,11-11s11,4.935,11,11v135     C190.34,153.104,189.444,154,188.34,154z M172.34,150h14V17c0-3.86-3.141-7-7-7s-7,3.14-7,7V150z"/>
		</g>
	</g>
	<g>
		<g>
			<path class="st4" d="M160.34,164.5h38v-14.909c0-3.916-3.175-7.091-7.091-7.091h-23.818c-3.916,0-7.091,3.175-7.091,7.091V164.5z     "/>
		</g>
	</g>
	<g>
		<g>
			<path class="st1" d="M198.34,166.5h-38c-1.104,0-2-0.896-2-2v-14.909c0-5.013,4.078-9.091,9.092-9.091h23.817     c5.013,0,9.091,4.078,9.091,9.091V164.5C200.34,165.604,199.444,166.5,198.34,166.5z M162.34,162.5h34v-12.909     c0-2.807-2.284-5.091-5.091-5.091h-23.817c-2.808,0-5.092,2.284-5.092,5.091V162.5z"/>
		</g>
	</g>
	<g>
		<g>
			<path class="st0" d="M35.34,190h36c4.418,0,8-3.582,8-8v-59c0-4.418-3.582-8-8-8h-36c-4.418,0-8,3.582-8,8v59     C27.34,186.418,30.922,190,35.34,190z"/>
		</g>
	</g>
	<g>
		<g>
			<circle class="st6" cx="95.34" cy="133" r="8"/>
		</g>
	</g>
	<g>
		<g>
			<g>
				<path class="st0" d="M152.34,181c2.206,0,4-1.794,4-4s-1.794-4-4-4h-17.43c-13.856,0-26.135-9.321-29.858-22.667l-4.857-17.408      c-0.481-1.723-2.065-2.926-3.853-2.926c-0.361,0-0.724,0.05-1.075,0.148c-1.03,0.287-1.886,0.958-2.41,1.889      c-0.525,0.931-0.656,2.01-0.369,3.039l4.857,17.408C102.03,169.273,117.477,181,134.91,181H152.34z"/>
			</g>
		</g>
	</g>
	<g>
		<g>
			<g>
				<path class="st1" d="M152.34,183h-17.43c-18.327,0-34.566-12.328-39.492-29.979l-4.857-17.408      c-0.431-1.544-0.234-3.164,0.554-4.56c0.786-1.395,2.07-2.4,3.614-2.832c0.528-0.147,1.07-0.222,1.613-0.222      c2.68,0,5.057,1.804,5.779,4.388l4.857,17.408C110.461,162.28,121.947,171,134.91,171h17.43c3.309,0,6,2.691,6,6      S155.648,183,152.34,183z M96.341,131.999c-0.179,0-0.36,0.025-0.538,0.075c-0.522,0.146-0.939,0.473-1.206,0.944      c-0.263,0.466-0.329,1.005-0.185,1.52l4.857,17.408C103.716,167.875,118.372,179,134.91,179h17.43c1.103,0,2-0.897,2-2      s-0.897-2-2-2h-17.43c-14.751,0-27.821-9.923-31.785-24.13l-4.857-17.408C98.027,132.601,97.234,131.999,96.341,131.999z"/>
			</g>
		</g>
	</g>
	<g>
		<g>
			<path class="st4" d="M136.34,183h86v-10c0-8.837-7.163-16-16-16h-54c-8.837,0-16,7.163-16,16V183z"/>
		</g>
	</g>
	<g>
		<g>
			<path class="st3" d="M136.021,248h86.638c3.568,0,6.348-3.095,5.965-6.642L222.34,183h-86l-6.285,58.358     C129.673,244.905,132.453,248,136.021,248z"/>
		</g>
	</g>
	<g>
		<g>
			<path class="st5" d="M208.34,200c1.657,0,3,1.343,3,3v45h-6v-45C205.34,201.343,206.683,200,208.34,200z"/>
		</g>
	</g>
	<g>
		<g>
			<path class="st5" d="M196.34,210c1.657,0,3,1.343,3,3v35h-6v-35C193.34,211.343,194.683,210,196.34,210z"/>
		</g>
	</g>
	<g>
		<g>
			<path class="st5" d="M184.34,220c1.657,0,3,1.343,3,3v25h-6v-25C181.34,221.343,182.683,220,184.34,220z"/>
		</g>
	</g>
	<g>
		<g>
			<path class="st5" d="M158.34,210c1.657,0,3,1.343,3,3v35h-6v-35C155.34,211.343,156.683,210,158.34,210z"/>
		</g>
	</g>
	<g>
		<g>
			<path class="st5" d="M146.34,200c1.657,0,3,1.343,3,3v45h-6v-45C143.34,201.343,144.683,200,146.34,200z"/>
		</g>
	</g>
	<g>
		<g>
			<path class="st1" d="M222.659,250h-86.639c-2.267,0-4.436-0.967-5.951-2.654c-1.515-1.687-2.245-3.948-2.002-6.202l6.284-58.358     c0.109-1.016,0.967-1.786,1.988-1.786h86c1.021,0,1.879,0.77,1.988,1.786l6.285,58.357c0.243,2.255-0.487,4.516-2.002,6.203     C227.096,249.033,224.927,250,222.659,250z M138.136,185l-6.092,56.572c-0.123,1.144,0.232,2.245,1.002,3.101     c0.769,0.856,1.824,1.327,2.975,1.327h86.639c1.15,0,2.207-0.471,2.977-1.327c0.769-0.856,1.124-1.958,1.001-3.102L220.544,185     H138.136z"/>
		</g>
	</g>
	<g>
		<g>
			<path class="st1" d="M222.34,185h-86c-1.104,0-2-0.896-2-2v-10c0-9.925,8.075-18,18-18h54c9.925,0,18,8.075,18,18v10     C224.34,184.104,223.444,185,222.34,185z M138.34,181h82v-8c0-7.72-6.28-14-14-14h-54c-7.72,0-14,6.28-14,14V181z"/>
		</g>
	</g>
	<g>
		<g>
			<path class="st3" d="M124.339,155L124.339,155c3.866,0,7-3.134,7-7v-31h-14v31C117.339,151.866,120.473,155,124.339,155z"/>
		</g>
	</g>
	<g>
		<g>
			<path class="st3" d="M110.34,137L110.34,137c3.866,0,7-3.134,7-7v-13h-14v13C103.34,133.866,106.474,137,110.34,137z"/>
		</g>
	</g>
	<g>
		<g>
			<g>
				<path class="st1" d="M124.339,157c-4.962,0-9-4.038-9-9v-10.519c-1.431,0.959-3.15,1.519-4.999,1.519c-4.963,0-9-4.038-9-9v-13      c0-1.104,0.896-2,2-2s2,0.896,2,2v13c0,2.757,2.243,5,5,5c2.724,0,4.946-2.189,4.999-4.9V117c0-1.104,0.896-2,2-2s2,0.896,2,2      h0.001l0,9.159l0,3.841c0,0.029,0,0.058,0,0.087l0,17.913c0,2.757,2.243,5,5,5s5-2.243,5-5v-31c0-1.104,0.896-2,2-2s2,0.896,2,2      v31C133.339,152.962,129.302,157,124.339,157z"/>
			</g>
		</g>
	</g>
	<g>
		<g>
			<path class="st1" d="M71.34,192h-36c-5.514,0-10-4.486-10-10v-59c0-5.514,4.486-10,10-10h36c5.514,0,10,4.486,10,10v59     C81.34,187.514,76.854,192,71.34,192z M35.34,117c-3.309,0-6,2.691-6,6v59c0,3.309,2.691,6,6,6h36c3.309,0,6-2.691,6-6v-59     c0-3.309-2.691-6-6-6H35.34z"/>
		</g>
	</g>
</g>
</svg>
